<svg width="94" height="95" viewBox="0 0 94 95" fill="none" xmlns="http://www.w3.org/2000/svg">
<path d="M0.0900879 4.01838C0.0900879 2.29291 1.48886 0.894135 3.21433 0.894135H12.5871C14.0207 0.894135 15.2703 1.86983 15.618 3.26064L18.1506 13.3911H90.6932C91.6226 13.3911 92.5038 13.8049 93.0973 14.5201C93.6909 15.2353 93.9352 16.1776 93.7639 17.0911L84.3912 67.079C84.1141 68.5567 82.8239 69.6275 81.3204 69.6275H75.072H31.3325H25.084C23.5806 69.6275 22.2904 68.5567 22.0133 67.079L12.6577 17.1827L10.1477 7.14262H3.21433C1.48886 7.14262 0.0900879 5.74385 0.0900879 4.01838ZM19.4758 19.6396L27.6769 63.379H78.7276L86.9287 19.6396H19.4758ZM31.3325 69.6275C24.4306 69.6275 18.8356 75.2226 18.8356 82.1245C18.8356 89.0264 24.4306 94.6215 31.3325 94.6215C38.2344 94.6215 43.8295 89.0264 43.8295 82.1245C43.8295 75.2226 38.2344 69.6275 31.3325 69.6275ZM75.072 69.6275C68.1701 69.6275 62.575 75.2226 62.575 82.1245C62.575 89.0264 68.1701 94.6215 75.072 94.6215C81.9738 94.6215 87.5689 89.0264 87.5689 82.1245C87.5689 75.2226 81.9738 69.6275 75.072 69.6275ZM31.3325 75.876C34.7835 75.876 37.581 78.6736 37.581 82.1245C37.581 85.5755 34.7835 88.373 31.3325 88.373C27.8816 88.373 25.084 85.5755 25.084 82.1245C25.084 78.6736 27.8816 75.876 31.3325 75.876ZM75.072 75.876C78.5229 75.876 81.3204 78.6736 81.3204 82.1245C81.3204 85.5755 78.5229 88.373 75.072 88.373C71.621 88.373 68.8235 85.5755 68.8235 82.1245C68.8235 78.6736 71.621 75.876 75.072 75.876Z" fill="#FFA41E"/>
</svg>
