<svg width="916" height="244" viewBox="0 0 916 244" fill="none" xmlns="http://www.w3.org/2000/svg">
<g clip-path="url(#clip0_35_116)">
<path d="M914.318 0.452286H1.7926V242.58H914.318V0.452286Z" fill="#232C3C"/>
<g filter="url(#filter0_d_35_116)">
<path d="M287.497 54.8838C277.775 63.9215 268.436 73.1693 259.48 82.6274C250.652 91.9804 242.849 101.228 236.069 110.371C229.416 119.513 224.042 128.341 219.948 136.854C215.983 145.261 214 153.09 214 160.341C214 163.073 214.575 165.018 215.727 166.174C216.877 167.329 218.413 167.908 220.332 167.908C224.042 167.908 228.904 166.226 234.916 162.863C240.929 159.5 247.134 155.139 253.531 149.78C255.577 147.993 257.689 146.102 259.864 144.105C262.166 142.003 264.341 139.954 266.389 137.957C268.563 135.855 270.483 133.911 272.145 132.125C273.936 130.338 275.407 128.866 276.559 127.711L278.095 128.499C275.152 131.652 271.762 135.225 267.924 139.218C264.213 143.106 259.288 147.572 253.147 152.617C246.623 157.976 240.098 162.443 233.573 166.016C227.177 169.589 220.716 171.375 214.191 171.375C210.993 171.375 208.306 170.955 206.132 170.114C204.085 169.274 202.421 168.17 201.141 166.804C199.991 165.333 199.159 163.704 198.647 161.917C198.135 160.131 197.879 158.239 197.879 156.243C197.879 149.833 199.159 143.684 201.717 137.799C204.276 131.809 207.283 126.135 210.738 120.775H183.871C178.625 125.819 172.741 131.231 166.216 137.011C159.82 142.791 152.911 148.151 145.491 153.09C138.071 157.924 130.266 161.97 122.079 165.228C113.891 168.486 105.383 170.114 96.556 170.114C92.718 170.114 89.0719 169.747 85.6176 169.011C82.0356 168.275 78.8372 167.172 76.0226 165.7C73.208 164.124 70.9693 162.18 69.3062 159.868C67.643 157.556 66.8114 154.771 66.8114 151.513C66.8114 148.466 67.8349 145.682 69.8818 143.159C71.9288 140.637 74.9992 139.376 79.0931 139.376C81.6517 139.376 83.8266 140.059 85.6176 141.425C87.4088 142.686 88.3043 144.262 88.3043 146.154C88.3043 148.992 87.2809 151.041 85.2339 152.302C83.1869 153.563 80.5003 154.194 77.1741 154.194C77.1741 156.4 77.8138 158.397 79.0931 160.184C80.3725 161.97 81.9715 163.441 83.8906 164.598C85.8096 165.753 87.9845 166.647 90.4152 167.277C92.846 167.908 95.2128 168.223 97.5156 168.223C103.273 168.223 108.902 167.435 114.403 165.859C120.032 164.177 125.533 161.97 130.907 159.237C136.28 156.506 141.461 153.353 146.45 149.78C151.44 146.207 156.237 142.529 160.843 138.745C165.448 134.962 169.798 131.178 173.892 127.395C177.986 123.507 181.76 119.987 185.214 116.834C192.251 110.319 199.543 103.908 207.091 97.6027C214.767 91.1922 222.763 85.2021 231.078 79.6324C239.394 73.9575 248.094 68.9132 257.177 64.4995C266.389 59.9806 276.048 56.4602 286.154 53.938L287.497 54.8838ZM211.888 118.883C219.053 108.479 227.177 98.601 236.26 89.248C245.343 79.8951 255.258 71.1201 266.004 62.9231L265.621 62.6079C250.524 69.1234 236.58 77.2153 223.786 86.8835C211.121 96.5517 198.52 107.218 185.981 118.883H211.888ZM273.511 154.508C273.511 155.77 273.639 157.084 273.895 158.449C274.151 159.816 274.599 161.077 275.238 162.233C275.878 163.284 276.773 164.177 277.925 164.912C279.076 165.649 280.547 166.016 282.338 166.016C285.281 166.016 288.223 165.228 291.166 163.651C294.236 162.075 297.179 160.026 299.994 157.504C302.808 154.982 305.43 152.144 307.862 148.992C310.421 145.733 312.595 142.476 314.386 139.218C316.177 135.855 317.584 132.703 318.608 129.76C319.76 126.713 320.334 124.085 320.334 121.878C320.334 119.462 319.695 117.517 318.416 116.046C317.136 114.47 315.025 113.681 312.083 113.681C307.477 113.681 302.871 115.152 298.267 118.095C293.788 121.038 289.694 124.664 285.985 128.972C282.275 133.176 279.269 137.642 276.966 142.37C274.663 146.994 273.511 151.041 273.511 154.508ZM352.191 113.997L309.204 172.794C316.113 171.112 322.637 168.8 328.778 165.859C334.92 162.81 340.741 159.343 346.241 155.455C351.742 151.461 356.924 147.152 361.786 142.529C366.775 137.799 371.445 132.966 375.794 128.026L377.137 128.972C373.172 133.28 368.886 137.747 364.28 142.37C359.803 146.89 354.748 151.251 349.12 155.455C343.618 159.658 337.478 163.494 330.697 166.961C323.917 170.43 316.305 173.162 307.862 175.159L276.39 220.242L255.28 220.873C263.34 210.048 271.272 199.33 279.076 188.716C286.88 178.102 295.003 167.592 303.448 157.188L303.064 156.873C298.842 160.761 294.173 164.177 289.055 167.119C283.938 169.957 278.052 171.375 271.401 171.375C268.457 171.375 265.963 170.902 263.916 169.957C261.869 169.116 260.142 167.96 258.735 166.489C257.456 165.018 256.495 163.336 255.856 161.445C255.344 159.447 255.089 157.398 255.089 155.296C255.089 150.147 256.688 144.998 259.886 139.849C263.212 134.699 267.434 130.076 272.551 125.977C277.669 121.773 283.362 118.358 289.631 115.731C296.027 113.103 302.297 111.789 308.437 111.789C313.81 111.789 317.904 112.736 320.719 114.627C323.661 116.413 325.708 119.462 326.86 123.77H327.243L332.232 114.942L352.191 113.997ZM445.177 113.681C440.187 120.513 435.518 126.607 431.168 131.966C426.947 137.327 423.3 142.108 420.23 146.312C417.159 150.41 414.729 153.984 412.938 157.031C411.274 160.078 410.443 162.758 410.443 165.07C410.443 167.382 411.658 168.538 414.088 168.538C415.624 168.538 417.479 168.118 419.654 167.277C421.829 166.331 424.132 165.175 426.562 163.809C428.993 162.337 431.488 160.657 434.047 158.765C436.605 156.873 439.036 154.982 441.339 153.09C444.154 150.673 446.904 148.256 449.59 145.839C452.405 143.317 454.964 140.9 457.267 138.588C459.697 136.276 461.873 134.174 463.791 132.282C465.71 130.286 467.309 128.604 468.589 127.238L470.124 128.184C467.053 131.546 463.152 135.592 458.418 140.321C453.684 144.945 448.631 149.517 443.258 154.035C436.733 159.5 430.721 163.757 425.219 166.804C419.718 169.851 414.281 171.375 408.908 171.375C405.07 171.375 401.999 170.43 399.696 168.538C397.393 166.647 396.242 164.282 396.242 161.445C396.242 159.447 396.434 157.661 396.818 156.085C397.33 154.509 397.905 153.3 398.545 152.459L398.161 152.144C395.858 154.141 393.363 156.296 390.677 158.607C387.99 160.814 385.112 162.863 382.042 164.755C378.971 166.647 375.645 168.223 372.062 169.484C368.608 170.745 364.835 171.375 360.74 171.375C356.775 171.375 353.769 170.377 351.722 168.38C349.675 166.279 348.651 163.861 348.651 161.129C348.651 157.135 351.273 151.356 356.519 143.79C361.764 136.223 368.864 126.397 377.82 114.312L398.161 113.681C388.054 126.397 379.803 136.854 373.406 145.051C367.137 153.143 364.003 159.185 364.003 163.178C364.003 164.439 364.387 165.49 365.155 166.331C366.05 167.172 367.201 167.592 368.608 167.592C371.039 167.592 373.918 166.751 377.244 165.07C380.698 163.388 384.28 161.129 387.99 158.292C391.701 155.455 395.346 152.196 398.929 148.519C402.639 144.841 405.965 141.005 408.908 137.011L425.411 114.942L445.177 113.681ZM522.982 115.258L542.939 114.312C541.789 116.203 540.125 118.515 537.95 121.248C535.776 123.875 533.409 126.765 530.85 129.917C528.291 132.966 525.669 136.17 522.982 139.533C520.423 142.791 518.057 145.996 515.882 149.149C513.707 152.196 511.916 155.086 510.508 157.819C509.229 160.447 508.59 162.706 508.59 164.598C508.59 167.224 510.189 168.538 513.387 168.538C516.458 168.538 520.615 167.067 525.861 164.124C531.106 161.182 536.607 157.294 542.365 152.459C544.795 150.463 547.225 148.308 549.657 145.996C552.215 143.684 554.646 141.425 556.949 139.218C559.251 136.906 561.363 134.804 563.281 132.913C565.2 130.916 566.735 129.287 567.887 128.026L569.23 128.656C565.904 132.335 562.066 136.433 557.716 140.952C553.366 145.366 548.121 150.095 541.98 155.139C535.839 160.184 529.762 164.335 523.75 167.592C517.864 170.745 511.98 172.321 506.095 172.321C502.001 172.321 498.803 171.481 496.5 169.8C494.325 168.012 493.238 165.859 493.238 163.336C493.238 162.496 493.301 161.707 493.43 160.972C493.557 160.236 493.75 159.658 494.006 159.237H493.621C489.656 162.916 485.177 166.016 480.188 168.538C475.199 171.061 469.826 172.321 464.069 172.321C460.998 172.321 458.375 171.849 456.201 170.902C454.025 169.957 452.235 168.696 450.827 167.119C449.548 165.438 448.589 163.598 447.948 161.602C447.309 159.5 446.989 157.346 446.989 155.139C446.989 149.99 448.716 144.841 452.171 139.691C455.625 134.542 459.975 129.917 465.22 125.819C470.466 121.615 476.287 118.252 482.683 115.731C489.208 113.103 495.412 111.789 501.298 111.789C505.775 111.789 509.293 112.578 511.852 114.154C514.411 115.731 516.522 118.201 518.185 121.563L522.982 115.258ZM465.411 155.612C465.411 158.659 465.987 161.339 467.139 163.651C468.419 165.859 471.041 166.961 475.007 166.961C477.694 166.857 480.508 165.963 483.45 164.282C486.394 162.496 489.207 160.288 491.894 157.661C494.709 155.034 497.331 152.144 499.762 148.992C502.321 145.733 504.496 142.476 506.287 139.218C508.205 135.96 509.677 132.913 510.701 130.076C511.852 127.133 512.428 124.664 512.428 122.666C512.428 119.829 511.788 117.622 510.508 116.046C509.229 114.47 506.734 113.681 503.025 113.681C500.082 113.681 497.075 114.417 494.006 115.888C491.062 117.36 488.185 119.303 485.37 121.721C482.683 124.138 480.061 126.87 477.502 129.917C475.07 132.86 472.96 135.908 471.169 139.06C469.378 142.213 467.97 145.261 466.947 148.203C465.923 151.041 465.411 153.51 465.411 155.612ZM556.288 117.15L557.63 114.312H572.407L586.799 94.4499L607.524 93.8195L591.597 114.312H615.968L614.242 117.15H589.487C583.729 124.926 578.868 131.494 574.901 136.854C570.936 142.108 567.738 146.521 565.307 150.095C563.004 153.563 561.277 156.347 560.126 158.449C559.102 160.551 558.591 162.39 558.591 163.967C558.591 165.333 559.038 166.436 559.933 167.277C560.829 168.118 562.109 168.538 563.771 168.538C566.97 168.538 571.192 167.224 576.437 164.598C581.683 161.865 587.311 158.135 593.325 153.405C597.418 150.043 601.896 146.102 606.757 141.582C611.618 137.064 616.16 132.492 620.383 127.868L621.534 128.656C618.592 131.809 614.881 135.645 610.403 140.164C605.926 144.682 601 149.149 595.627 153.563C592.685 155.98 589.614 158.292 586.416 160.498C583.345 162.6 580.211 164.492 577.013 166.174C573.815 167.749 570.68 169.011 567.609 169.957C564.539 170.902 561.533 171.375 558.591 171.375C554.496 171.375 550.914 170.64 547.844 169.169C544.773 167.592 543.238 164.912 543.238 161.129C543.238 158.396 543.942 155.612 545.349 152.774C546.756 149.833 548.676 146.627 551.106 143.159C553.665 139.691 556.608 135.855 559.933 131.652C563.259 127.448 566.842 122.614 570.68 117.15H556.288ZM646.926 114.312C640.914 122.089 635.732 128.762 631.382 134.331C627.032 139.796 623.451 144.472 620.636 148.361C617.949 152.249 615.902 155.455 614.495 157.976C613.216 160.394 612.575 162.39 612.575 163.967C612.575 165.228 612.831 166.279 613.343 167.119C613.983 167.855 614.878 168.223 616.03 168.223C618.589 168.223 622.171 167.014 626.776 164.598C631.51 162.18 637.394 158.029 644.432 152.144C647.246 149.727 649.997 147.362 652.683 145.051C655.369 142.633 657.865 140.321 660.168 138.115C662.598 135.908 664.709 133.911 666.501 132.125C668.419 130.338 669.954 128.919 671.105 127.868L672.832 128.815C671.298 130.496 669.378 132.44 667.075 134.647C664.901 136.748 662.534 139.008 659.975 141.425C657.416 143.737 654.794 146.049 652.107 148.361C649.421 150.673 646.798 152.88 644.239 154.982C636.82 161.077 630.423 165.333 625.049 167.749C619.804 170.167 614.942 171.375 610.465 171.375C606.243 171.375 602.98 170.43 600.677 168.538C598.376 166.647 597.224 164.177 597.224 161.129C597.224 159.027 597.735 156.873 598.759 154.666C599.654 152.354 601.253 149.517 603.556 146.154C605.859 142.791 608.93 138.64 612.768 133.701C616.606 128.656 621.404 122.456 627.16 115.1L646.926 114.312ZM658.057 79.3171C660.487 79.3171 662.598 80.0527 664.389 81.524C666.308 82.9952 667.267 84.7292 667.267 86.7259C667.267 88.8277 666.245 90.7718 664.198 92.5583C662.151 94.2398 659.848 95.0805 657.289 95.0805C654.474 95.0805 652.044 94.5025 649.997 93.3465C647.95 92.0855 646.926 90.2464 646.926 87.8293C646.926 85.4123 648.014 83.4156 650.188 81.8392C652.491 80.1578 655.113 79.3171 658.057 79.3171ZM750.703 129.129C745.97 133.858 740.853 138.798 735.352 143.947C729.851 148.992 723.901 153.615 717.506 157.819C711.236 162.023 704.456 165.49 697.164 168.223C689.999 170.955 682.387 172.321 674.327 172.321C666.651 172.321 660.767 170.64 656.673 167.277C652.579 163.809 650.532 158.765 650.532 152.144C650.532 147.1 652.323 142.16 655.905 137.327C659.487 132.492 664.093 128.184 669.721 124.401C675.351 120.617 681.556 117.57 688.336 115.258C695.117 112.946 701.705 111.789 708.102 111.789C713.986 111.789 718.656 112.788 722.11 114.785C725.565 116.676 727.292 119.041 727.292 121.878C727.292 123.875 726.78 125.715 725.757 127.395C724.862 128.972 723.645 130.338 722.11 131.494C720.575 132.545 718.848 133.386 716.93 134.017C715.01 134.542 713.091 134.804 711.173 134.804C709.509 134.804 708.038 134.699 706.759 134.489C707.654 132.072 708.614 129.603 709.638 127.08C710.661 124.558 711.173 122.036 711.173 119.513C711.173 117.727 710.661 116.309 709.638 115.258C708.614 114.207 707.206 113.681 705.415 113.681C702.089 113.681 698.315 114.785 694.093 116.991C689.872 119.093 685.905 121.983 682.195 125.662C678.486 129.235 675.351 133.386 672.792 138.115C670.233 142.739 668.954 147.572 668.954 152.617C668.954 156.61 670.425 160.026 673.368 162.863C676.31 165.596 680.404 166.961 685.649 166.961C691.919 166.961 698.123 165.543 704.264 162.706C710.533 159.868 716.418 156.453 721.919 152.459C727.548 148.361 732.666 144.157 737.271 139.849C741.876 135.435 745.779 131.652 748.976 128.499L750.703 129.129ZM803.712 115.258L823.669 114.312C822.518 116.203 820.855 118.515 818.68 121.248C816.506 123.875 814.139 126.765 811.58 129.917C809.021 132.966 806.399 136.17 803.712 139.533C801.153 142.791 798.787 145.996 796.611 149.149C794.437 152.196 792.646 155.086 791.238 157.819C789.959 160.447 789.319 162.706 789.319 164.598C789.319 167.224 790.919 168.538 794.117 168.538C797.187 168.538 801.345 167.067 806.591 164.124C811.836 161.182 817.337 157.294 823.094 152.459C825.525 150.463 827.955 148.308 830.386 145.996C832.945 143.684 835.376 141.425 837.678 139.218C839.981 136.906 842.093 134.804 844.011 132.913C845.93 130.916 847.465 129.287 848.617 128.026L849.959 128.656C846.634 132.335 842.796 136.433 838.446 140.952C834.096 145.366 828.851 150.095 822.71 155.139C816.569 160.184 810.492 164.335 804.479 167.592C798.594 170.745 792.71 172.321 786.825 172.321C782.731 172.321 779.533 171.481 777.23 169.8C775.054 168.012 773.968 165.859 773.968 163.336C773.968 162.496 774.031 161.707 774.159 160.972C774.287 160.236 774.48 159.658 774.735 159.237H774.351C770.386 162.916 765.907 166.016 760.918 168.538C755.929 171.061 750.555 172.321 744.799 172.321C741.728 172.321 739.105 171.849 736.931 170.902C734.755 169.957 732.965 168.696 731.557 167.119C730.278 165.438 729.319 163.598 728.678 161.602C728.039 159.5 727.719 157.346 727.719 155.139C727.719 149.99 729.446 144.841 732.901 139.691C736.355 134.542 740.705 129.917 745.95 125.819C751.196 121.615 757.017 118.252 763.412 115.731C769.937 113.103 776.142 111.789 782.027 111.789C786.505 111.789 790.023 112.578 792.582 114.154C795.14 115.731 797.252 118.201 798.914 121.563L803.712 115.258ZM746.141 155.612C746.141 158.659 746.717 161.339 747.869 163.651C749.149 165.859 751.771 166.961 755.737 166.961C758.423 166.857 761.238 165.963 764.18 164.282C767.123 162.496 769.937 160.288 772.624 157.661C775.439 155.034 778.061 152.144 780.492 148.992C783.051 145.733 785.225 142.476 787.017 139.218C788.935 135.96 790.407 132.913 791.431 130.076C792.582 127.133 793.158 124.664 793.158 122.666C793.158 119.829 792.517 117.622 791.238 116.046C789.959 114.47 787.464 113.681 783.754 113.681C780.812 113.681 777.805 114.417 774.735 115.888C771.792 117.36 768.914 119.303 766.1 121.721C763.412 124.138 760.791 126.87 758.232 129.917C755.8 132.86 753.69 135.908 751.899 139.06C750.108 142.213 748.7 145.261 747.676 148.203C746.653 151.041 746.141 153.51 746.141 155.612Z" fill="#F5F5F5"/>
</g>
</g>
<defs>
<filter id="filter0_d_35_116" x="63.0074" y="53.938" width="790.756" height="174.542" filterUnits="userSpaceOnUse" color-interpolation-filters="sRGB">
<feFlood flood-opacity="0" result="BackgroundImageFix"/>
<feColorMatrix in="SourceAlpha" type="matrix" values="0 0 0 0 0 0 0 0 0 0 0 0 0 0 0 0 0 0 127 0" result="hardAlpha"/>
<feOffset dy="3.80397"/>
<feGaussianBlur stdDeviation="1.90198"/>
<feComposite in2="hardAlpha" operator="out"/>
<feColorMatrix type="matrix" values="0 0 0 0 0 0 0 0 0 0 0 0 0 0 0 0 0 0 0.25 0"/>
<feBlend mode="normal" in2="BackgroundImageFix" result="effect1_dropShadow_35_116"/>
<feBlend mode="normal" in="SourceGraphic" in2="effect1_dropShadow_35_116" result="shape"/>
</filter>
<clipPath id="clip0_35_116">
<rect width="914.378" height="243.062" fill="white" transform="translate(0.810181 0.226578)"/>
</clipPath>
</defs>
</svg>
