<svg width="754" height="244" viewBox="0 0 754 244" fill="none" xmlns="http://www.w3.org/2000/svg">
<rect width="752.472" height="243.062" transform="translate(0.810059 0.226578)" fill="#232C3C"/>
<g filter="url(#filter0_d_29_55)">
<path d="M236.403 54.868C228.386 63.9406 220.685 73.2241 213.3 82.7187C206.021 92.1077 199.586 101.391 193.995 110.569C188.509 119.747 184.078 128.609 180.702 137.154C177.432 145.594 175.797 153.453 175.797 160.732C175.797 163.475 176.271 165.427 177.221 166.587C178.17 167.747 179.436 168.328 181.019 168.328C184.078 168.328 188.087 166.64 193.045 163.264C198.003 159.888 203.12 155.51 208.395 150.13C210.082 148.336 211.823 146.438 213.617 144.433C215.515 142.323 217.309 140.266 218.997 138.262C220.79 136.152 222.373 134.2 223.744 132.407C225.221 130.613 226.434 129.136 227.384 127.976L228.65 128.767C226.223 131.932 223.428 135.519 220.263 139.528C217.203 143.431 213.142 147.914 208.078 152.978C202.698 158.358 197.318 162.842 191.937 166.429C186.663 170.016 181.335 171.809 175.955 171.809C173.318 171.809 171.102 171.387 169.309 170.543C167.621 169.699 166.249 168.591 165.194 167.22C164.245 165.743 163.559 164.108 163.137 162.314C162.715 160.521 162.504 158.622 162.504 156.618C162.504 150.183 163.559 144.011 165.669 138.103C167.779 132.09 170.258 126.394 173.107 121.013H150.953C146.627 126.077 141.775 131.51 136.394 137.312C131.12 143.114 125.423 148.495 119.304 153.453C113.186 158.306 106.75 162.367 99.9987 165.638C93.247 168.908 86.2316 170.543 78.9524 170.543C75.7876 170.543 72.781 170.174 69.9326 169.435C66.9788 168.697 64.3414 167.589 62.0205 166.112C59.6996 164.53 57.8535 162.578 56.4821 160.257C55.1106 157.936 54.4249 155.141 54.4249 151.87C54.4249 148.811 55.2689 146.016 56.9568 143.484C58.6447 140.952 61.1766 139.686 64.5524 139.686C66.6623 139.686 68.4557 140.372 69.9326 141.743C71.4096 143.009 72.148 144.591 72.148 146.49C72.148 149.339 71.3041 151.396 69.6162 152.662C67.9282 153.928 65.7128 154.561 62.97 154.561C62.97 156.776 63.4975 158.78 64.5524 160.574C65.6074 162.367 66.926 163.844 68.5085 165.005C70.0909 166.165 71.8843 167.062 73.8887 167.695C75.8931 168.328 77.8448 168.644 79.7437 168.644C84.4909 168.644 89.1327 167.853 93.669 166.271C98.3107 164.583 102.847 162.367 107.278 159.624C111.709 156.882 115.981 153.717 120.095 150.13C124.21 146.543 128.166 142.851 131.964 139.053C135.761 135.255 139.348 131.457 142.724 127.659C146.1 123.756 149.212 120.222 152.06 117.057C157.863 110.517 163.876 104.081 170.1 97.7517C176.43 91.3165 183.023 85.3033 189.88 79.7121C196.737 74.0153 203.911 68.9516 211.401 64.5208C218.997 59.9845 226.962 56.4505 235.296 53.9186L236.403 54.868ZM174.056 119.114C179.964 108.67 186.663 98.7539 194.153 89.3648C201.643 79.9758 209.819 71.167 218.68 62.9384L218.364 62.6219C205.915 69.1626 194.417 77.2857 183.867 86.9912C173.423 96.6967 163.032 107.404 152.693 119.114H174.056ZM224.87 154.877C224.87 156.143 224.976 157.462 225.187 158.833C225.398 160.205 225.767 161.471 226.294 162.631C226.822 163.686 227.56 164.583 228.51 165.321C229.459 166.06 230.672 166.429 232.149 166.429C234.576 166.429 237.002 165.638 239.429 164.055C241.96 162.473 244.387 160.416 246.708 157.884C249.029 155.352 251.191 152.503 253.196 149.339C255.306 146.068 257.099 142.798 258.576 139.528C260.053 136.152 261.213 132.987 262.057 130.033C263.007 126.974 263.481 124.336 263.481 122.121C263.481 119.695 262.954 117.743 261.899 116.266C260.844 114.684 259.103 113.892 256.677 113.892C252.879 113.892 249.081 115.369 245.284 118.323C241.591 121.277 238.215 124.917 235.156 129.242C232.097 133.462 229.618 137.945 227.719 142.692C225.82 147.334 224.87 151.396 224.87 154.877ZM289.75 114.209L254.303 173.233C260 171.545 265.38 169.224 270.444 166.271C275.508 163.211 280.308 159.73 284.844 155.827C289.38 151.818 293.653 147.492 297.662 142.851C301.776 138.103 305.627 133.251 309.213 128.292L310.321 129.242C307.051 133.567 303.517 138.051 299.719 142.692C296.027 147.229 291.859 151.607 287.218 155.827C282.681 160.046 277.618 163.897 272.026 167.378C266.435 170.86 260.158 173.602 253.196 175.607L227.244 220.864L209.837 221.497C216.483 210.631 223.024 199.871 229.459 189.216C235.894 178.561 242.593 168.011 249.556 157.567L249.24 157.251C245.758 161.154 241.908 164.583 237.688 167.536C233.468 170.385 228.615 171.809 223.13 171.809C220.703 171.809 218.646 171.334 216.958 170.385C215.27 169.541 213.846 168.38 212.686 166.904C211.631 165.427 210.839 163.739 210.312 161.84C209.89 159.835 209.679 157.778 209.679 155.668C209.679 150.499 210.998 145.33 213.635 140.161C216.378 134.991 219.859 130.35 224.079 126.235C228.299 122.015 232.993 118.587 238.163 115.95C243.437 113.312 248.607 111.993 253.67 111.993C258.101 111.993 261.477 112.943 263.798 114.842C266.224 116.635 267.912 119.695 268.862 124.02H269.178L273.292 115.158L289.75 114.209ZM366.427 113.892C362.312 120.75 358.462 126.868 354.875 132.248C351.394 137.629 348.387 142.429 345.855 146.649C343.323 150.763 341.319 154.35 339.842 157.409C338.47 160.468 337.785 163.158 337.785 165.479C337.785 167.8 338.787 168.961 340.791 168.961C342.057 168.961 343.587 168.539 345.38 167.695C347.174 166.745 349.073 165.585 351.077 164.213C353.081 162.736 355.139 161.049 357.249 159.15C359.358 157.251 361.363 155.352 363.262 153.453C365.583 151.027 367.851 148.6 370.066 146.174C372.387 143.642 374.497 141.216 376.396 138.895C378.4 136.574 380.194 134.464 381.776 132.565C383.358 130.561 384.677 128.873 385.732 127.501L386.998 128.451C384.466 131.826 381.249 135.888 377.345 140.635C373.442 145.277 369.275 149.866 364.844 154.402C359.464 159.888 354.506 164.161 349.969 167.22C345.433 170.279 340.95 171.809 336.519 171.809C333.354 171.809 330.822 170.86 328.923 168.961C327.024 167.062 326.075 164.688 326.075 161.84C326.075 159.835 326.233 158.042 326.55 156.46C326.972 154.877 327.446 153.664 327.974 152.82L327.657 152.503C325.758 154.508 323.701 156.671 321.486 158.991C319.27 161.207 316.897 163.264 314.365 165.163C311.833 167.062 309.09 168.644 306.136 169.91C303.288 171.176 300.176 171.809 296.8 171.809C293.53 171.809 291.051 170.807 289.363 168.802C287.675 166.693 286.831 164.266 286.831 161.523C286.831 157.514 288.993 151.712 293.319 144.117C297.644 136.521 303.499 126.657 310.884 114.525L327.657 113.892C319.323 126.657 312.519 137.154 307.244 145.383C302.075 153.506 299.49 159.572 299.49 163.58C299.49 164.846 299.807 165.901 300.44 166.745C301.178 167.589 302.127 168.011 303.288 168.011C305.292 168.011 307.666 167.167 310.409 165.479C313.257 163.791 316.211 161.523 319.27 158.675C322.33 155.827 325.336 152.556 328.29 148.864C331.35 145.172 334.092 141.321 336.519 137.312L350.128 115.158L366.427 113.892ZM430.585 115.475L447.042 114.525C446.093 116.424 444.721 118.745 442.928 121.488C441.135 124.125 439.183 127.026 437.073 130.191C434.963 133.251 432.801 136.468 430.585 139.844C428.475 143.114 426.524 146.332 424.73 149.497C422.937 152.556 421.46 155.457 420.299 158.2C419.244 160.838 418.717 163.106 418.717 165.005C418.717 167.642 420.036 168.961 422.673 168.961C425.205 168.961 428.633 167.484 432.959 164.53C437.284 161.576 441.82 157.673 446.568 152.82C448.572 150.816 450.576 148.653 452.581 146.332C454.691 144.011 456.695 141.743 458.594 139.528C460.493 137.207 462.234 135.097 463.816 133.198C465.398 131.194 466.664 129.558 467.614 128.292L468.721 128.925C465.979 132.618 462.814 136.732 459.227 141.268C455.64 145.699 451.315 150.446 446.251 155.51C441.187 160.574 436.176 164.741 431.218 168.011C426.365 171.176 421.513 172.758 416.66 172.758C413.284 172.758 410.647 171.915 408.748 170.227C406.954 168.433 406.058 166.271 406.058 163.739C406.058 162.895 406.11 162.103 406.216 161.365C406.321 160.627 406.48 160.046 406.691 159.624H406.374C403.104 163.317 399.411 166.429 395.297 168.961C391.183 171.493 386.752 172.758 382.005 172.758C379.473 172.758 377.31 172.284 375.517 171.334C373.723 170.385 372.247 169.119 371.086 167.536C370.031 165.849 369.24 164.002 368.712 161.998C368.185 159.888 367.921 157.725 367.921 155.51C367.921 150.341 369.345 145.172 372.194 140.002C375.042 134.833 378.629 130.191 382.954 126.077C387.28 121.857 392.08 118.481 397.354 115.95C402.735 113.312 407.851 111.993 412.704 111.993C416.396 111.993 419.297 112.785 421.407 114.367C423.517 115.95 425.258 118.429 426.629 121.804L430.585 115.475ZM383.112 155.985C383.112 159.044 383.587 161.734 384.537 164.055C385.592 166.271 387.754 167.378 391.025 167.378C393.24 167.273 395.561 166.376 397.987 164.688C400.414 162.895 402.734 160.679 404.95 158.042C407.271 155.405 409.433 152.503 411.438 149.339C413.548 146.068 415.341 142.798 416.818 139.528C418.4 136.257 419.614 133.198 420.458 130.35C421.407 127.396 421.882 124.917 421.882 122.912C421.882 120.064 421.354 117.848 420.299 116.266C419.244 114.684 417.187 113.892 414.128 113.892C411.702 113.892 409.222 114.631 406.691 116.108C404.264 117.585 401.891 119.536 399.57 121.963C397.354 124.389 395.192 127.132 393.082 130.191C391.077 133.145 389.337 136.205 387.86 139.369C386.383 142.534 385.222 145.594 384.378 148.547C383.534 151.396 383.112 153.875 383.112 155.985ZM458.049 117.374L459.156 114.525H471.341L483.209 94.5868L500.299 93.9539L487.165 114.525H507.262L505.838 117.374H485.425C480.677 125.18 476.669 131.774 473.398 137.154C470.128 142.429 467.491 146.859 465.486 150.446C463.587 153.928 462.163 156.723 461.214 158.833C460.37 160.943 459.948 162.789 459.948 164.372C459.948 165.743 460.317 166.851 461.055 167.695C461.794 168.539 462.849 168.961 464.22 168.961C466.858 168.961 470.339 167.642 474.664 165.005C478.99 162.262 483.631 158.517 488.59 153.769C491.965 150.394 495.658 146.438 499.666 141.901C503.675 137.365 507.42 132.776 510.902 128.134L511.851 128.925C509.425 132.09 506.365 135.941 502.673 140.477C498.981 145.013 494.919 149.497 490.488 153.928C488.062 156.354 485.53 158.675 482.893 160.89C480.361 163 477.776 164.899 475.139 166.587C472.502 168.169 469.917 169.435 467.385 170.385C464.853 171.334 462.374 171.809 459.948 171.809C456.572 171.809 453.618 171.071 451.086 169.594C448.554 168.011 447.288 165.321 447.288 161.523C447.288 158.78 447.869 155.985 449.029 153.136C450.189 150.183 451.772 146.965 453.776 143.484C455.886 140.002 458.313 136.152 461.055 131.932C463.798 127.712 466.752 122.859 469.917 117.374H458.049ZM532.79 114.525C527.832 122.332 523.559 129.031 519.972 134.622C516.385 140.108 513.432 144.802 511.111 148.706C508.895 152.609 507.207 155.827 506.047 158.358C504.992 160.785 504.464 162.789 504.464 164.372C504.464 165.638 504.675 166.693 505.097 167.536C505.625 168.275 506.363 168.644 507.313 168.644C509.423 168.644 512.377 167.431 516.174 165.005C520.078 162.578 524.93 158.411 530.733 152.503C533.054 150.077 535.322 147.703 537.537 145.383C539.752 142.956 541.81 140.635 543.709 138.42C545.713 136.205 547.454 134.2 548.931 132.407C550.513 130.613 551.779 129.189 552.728 128.134L554.152 129.084C552.887 130.772 551.304 132.723 549.405 134.939C547.612 137.048 545.66 139.317 543.55 141.743C541.44 144.064 539.278 146.385 537.062 148.706C534.847 151.027 532.684 153.242 530.574 155.352C524.456 161.471 519.181 165.743 514.75 168.169C510.425 170.596 506.416 171.809 502.724 171.809C499.242 171.809 496.552 170.86 494.653 168.961C492.755 167.062 491.805 164.583 491.805 161.523C491.805 159.413 492.227 157.251 493.071 155.035C493.809 152.714 495.128 149.866 497.027 146.49C498.926 143.114 501.458 138.947 504.623 133.989C507.788 128.925 511.744 122.701 516.491 115.317L532.79 114.525ZM541.968 79.3956C543.972 79.3956 545.713 80.134 547.19 81.611C548.772 83.0879 549.563 84.8286 549.563 86.833C549.563 88.9429 548.72 90.8945 547.032 92.6879C545.344 94.3758 543.445 95.2198 541.335 95.2198C539.014 95.2198 537.01 94.6396 535.322 93.4791C533.634 92.2132 532.79 90.367 532.79 87.9406C532.79 85.5143 533.687 83.5099 535.48 81.9274C537.379 80.2395 539.541 79.3956 541.968 79.3956ZM618.365 129.4C614.462 134.147 610.242 139.106 605.706 144.275C601.17 149.339 596.264 153.98 590.99 158.2C585.82 162.42 580.229 165.901 574.216 168.644C568.308 171.387 562.031 172.758 555.385 172.758C549.055 172.758 544.203 171.071 540.827 167.695C537.451 164.213 535.763 159.15 535.763 152.503C535.763 147.44 537.24 142.481 540.194 137.629C543.148 132.776 546.946 128.451 551.587 124.653C556.229 120.855 561.346 117.796 566.937 115.475C572.528 113.154 577.961 111.993 583.236 111.993C588.088 111.993 591.939 112.996 594.787 115C597.636 116.899 599.06 119.273 599.06 122.121C599.06 124.125 598.638 125.972 597.794 127.659C597.056 129.242 596.053 130.613 594.787 131.774C593.521 132.829 592.097 133.673 590.515 134.306C588.932 134.833 587.35 135.097 585.768 135.097C584.396 135.097 583.183 134.991 582.128 134.78C582.866 132.354 583.658 129.875 584.502 127.343C585.346 124.811 585.768 122.279 585.768 119.747C585.768 117.954 585.346 116.53 584.502 115.475C583.658 114.42 582.497 113.892 581.02 113.892C578.277 113.892 575.165 115 571.684 117.215C568.203 119.325 564.932 122.226 561.873 125.919C558.814 129.506 556.229 133.673 554.119 138.42C552.009 143.062 550.954 147.914 550.954 152.978C550.954 156.987 552.167 160.416 554.594 163.264C557.02 166.007 560.396 167.378 564.721 167.378C569.891 167.378 575.007 165.954 580.071 163.106C585.24 160.257 590.093 156.829 594.629 152.82C599.271 148.706 603.491 144.486 607.289 140.161C611.086 135.73 614.304 131.932 616.941 128.767L618.365 129.4ZM662.076 115.475L678.533 114.525C677.584 116.424 676.212 118.745 674.419 121.488C672.626 124.125 670.674 127.026 668.564 130.191C666.454 133.251 664.292 136.468 662.076 139.844C659.966 143.114 658.015 146.332 656.221 149.497C654.428 152.556 652.951 155.457 651.79 158.2C650.735 160.838 650.208 163.106 650.208 165.005C650.208 167.642 651.527 168.961 654.164 168.961C656.696 168.961 660.124 167.484 664.45 164.53C668.775 161.576 673.311 157.673 678.059 152.82C680.063 150.816 682.067 148.653 684.072 146.332C686.182 144.011 688.186 141.743 690.085 139.528C691.984 137.207 693.725 135.097 695.307 133.198C696.889 131.194 698.155 129.558 699.105 128.292L700.212 128.925C697.47 132.618 694.305 136.732 690.718 141.268C687.131 145.699 682.806 150.446 677.742 155.51C672.678 160.574 667.667 164.741 662.709 168.011C657.856 171.176 653.004 172.758 648.151 172.758C644.775 172.758 642.138 171.915 640.239 170.227C638.445 168.433 637.549 166.271 637.549 163.739C637.549 162.895 637.601 162.103 637.707 161.365C637.812 160.627 637.971 160.046 638.182 159.624H637.865C634.595 163.317 630.902 166.429 626.788 168.961C622.674 171.493 618.243 172.758 613.496 172.758C610.964 172.758 608.801 172.284 607.008 171.334C605.214 170.385 603.738 169.119 602.577 167.536C601.522 165.849 600.731 164.002 600.203 161.998C599.676 159.888 599.412 157.725 599.412 155.51C599.412 150.341 600.836 145.172 603.685 140.002C606.533 134.833 610.12 130.191 614.445 126.077C618.771 121.857 623.571 118.481 628.845 115.95C634.225 113.312 639.342 111.993 644.195 111.993C647.887 111.993 650.788 112.785 652.898 114.367C655.008 115.95 656.749 118.429 658.12 121.804L662.076 115.475ZM614.603 155.985C614.603 159.044 615.078 161.734 616.028 164.055C617.083 166.271 619.245 167.378 622.516 167.378C624.731 167.273 627.052 166.376 629.478 164.688C631.905 162.895 634.225 160.679 636.441 158.042C638.762 155.405 640.924 152.503 642.929 149.339C645.039 146.068 646.832 142.798 648.309 139.528C649.891 136.257 651.105 133.198 651.949 130.35C652.898 127.396 653.373 124.917 653.373 122.912C653.373 120.064 652.845 117.848 651.79 116.266C650.735 114.684 648.678 113.892 645.619 113.892C643.193 113.892 640.713 114.631 638.182 116.108C635.755 117.585 633.382 119.536 631.061 121.963C628.845 124.389 626.683 127.132 624.573 130.191C622.568 133.145 620.828 136.205 619.351 139.369C617.874 142.534 616.713 145.594 615.869 148.547C615.025 151.396 614.603 153.875 614.603 155.985Z" fill="#CDCDCD"/>
<path d="M236.403 54.868C228.386 63.9406 220.685 73.2241 213.3 82.7187C206.021 92.1077 199.586 101.391 193.995 110.569C188.509 119.747 184.078 128.609 180.702 137.154C177.432 145.594 175.797 153.453 175.797 160.732C175.797 163.475 176.271 165.427 177.221 166.587C178.17 167.747 179.436 168.328 181.019 168.328C184.078 168.328 188.087 166.64 193.045 163.264C198.003 159.888 203.12 155.51 208.395 150.13C210.082 148.336 211.823 146.438 213.617 144.433C215.515 142.323 217.309 140.266 218.997 138.262C220.79 136.152 222.373 134.2 223.744 132.407C225.221 130.613 226.434 129.136 227.384 127.976L228.65 128.767C226.223 131.932 223.428 135.519 220.263 139.528C217.203 143.431 213.142 147.914 208.078 152.978C202.698 158.358 197.318 162.842 191.937 166.429C186.663 170.016 181.335 171.809 175.955 171.809C173.318 171.809 171.102 171.387 169.309 170.543C167.621 169.699 166.249 168.591 165.194 167.22C164.245 165.743 163.559 164.108 163.137 162.314C162.715 160.521 162.504 158.622 162.504 156.618C162.504 150.183 163.559 144.011 165.669 138.103C167.779 132.09 170.258 126.394 173.107 121.013H150.953C146.627 126.077 141.775 131.51 136.394 137.312C131.12 143.114 125.423 148.495 119.304 153.453C113.186 158.306 106.75 162.367 99.9987 165.638C93.247 168.908 86.2316 170.543 78.9524 170.543C75.7876 170.543 72.781 170.174 69.9326 169.435C66.9788 168.697 64.3414 167.589 62.0205 166.112C59.6996 164.53 57.8535 162.578 56.4821 160.257C55.1106 157.936 54.4249 155.141 54.4249 151.87C54.4249 148.811 55.2689 146.016 56.9568 143.484C58.6447 140.952 61.1766 139.686 64.5524 139.686C66.6623 139.686 68.4557 140.372 69.9326 141.743C71.4096 143.009 72.148 144.591 72.148 146.49C72.148 149.339 71.3041 151.396 69.6162 152.662C67.9282 153.928 65.7128 154.561 62.97 154.561C62.97 156.776 63.4975 158.78 64.5524 160.574C65.6074 162.367 66.926 163.844 68.5085 165.005C70.0909 166.165 71.8843 167.062 73.8887 167.695C75.8931 168.328 77.8448 168.644 79.7437 168.644C84.4909 168.644 89.1327 167.853 93.669 166.271C98.3107 164.583 102.847 162.367 107.278 159.624C111.709 156.882 115.981 153.717 120.095 150.13C124.21 146.543 128.166 142.851 131.964 139.053C135.761 135.255 139.348 131.457 142.724 127.659C146.1 123.756 149.212 120.222 152.06 117.057C157.863 110.517 163.876 104.081 170.1 97.7517C176.43 91.3165 183.023 85.3033 189.88 79.7121C196.737 74.0153 203.911 68.9516 211.401 64.5208C218.997 59.9845 226.962 56.4505 235.296 53.9186L236.403 54.868ZM174.056 119.114C179.964 108.67 186.663 98.7539 194.153 89.3648C201.643 79.9758 209.819 71.167 218.68 62.9384L218.364 62.6219C205.915 69.1626 194.417 77.2857 183.867 86.9912C173.423 96.6967 163.032 107.404 152.693 119.114H174.056ZM224.87 154.877C224.87 156.143 224.976 157.462 225.187 158.833C225.398 160.205 225.767 161.471 226.294 162.631C226.822 163.686 227.56 164.583 228.51 165.321C229.459 166.06 230.672 166.429 232.149 166.429C234.576 166.429 237.002 165.638 239.429 164.055C241.96 162.473 244.387 160.416 246.708 157.884C249.029 155.352 251.191 152.503 253.196 149.339C255.306 146.068 257.099 142.798 258.576 139.528C260.053 136.152 261.213 132.987 262.057 130.033C263.007 126.974 263.481 124.336 263.481 122.121C263.481 119.695 262.954 117.743 261.899 116.266C260.844 114.684 259.103 113.892 256.677 113.892C252.879 113.892 249.081 115.369 245.284 118.323C241.591 121.277 238.215 124.917 235.156 129.242C232.097 133.462 229.618 137.945 227.719 142.692C225.82 147.334 224.87 151.396 224.87 154.877ZM289.75 114.209L254.303 173.233C260 171.545 265.38 169.224 270.444 166.271C275.508 163.211 280.308 159.73 284.844 155.827C289.38 151.818 293.653 147.492 297.662 142.851C301.776 138.103 305.627 133.251 309.213 128.292L310.321 129.242C307.051 133.567 303.517 138.051 299.719 142.692C296.027 147.229 291.859 151.607 287.218 155.827C282.681 160.046 277.618 163.897 272.026 167.378C266.435 170.86 260.158 173.602 253.196 175.607L227.244 220.864L209.837 221.497C216.483 210.631 223.024 199.871 229.459 189.216C235.894 178.561 242.593 168.011 249.556 157.567L249.24 157.251C245.758 161.154 241.908 164.583 237.688 167.536C233.468 170.385 228.615 171.809 223.13 171.809C220.703 171.809 218.646 171.334 216.958 170.385C215.27 169.541 213.846 168.38 212.686 166.904C211.631 165.427 210.839 163.739 210.312 161.84C209.89 159.835 209.679 157.778 209.679 155.668C209.679 150.499 210.998 145.33 213.635 140.161C216.378 134.991 219.859 130.35 224.079 126.235C228.299 122.015 232.993 118.587 238.163 115.95C243.437 113.312 248.607 111.993 253.67 111.993C258.101 111.993 261.477 112.943 263.798 114.842C266.224 116.635 267.912 119.695 268.862 124.02H269.178L273.292 115.158L289.75 114.209ZM366.427 113.892C362.312 120.75 358.462 126.868 354.875 132.248C351.394 137.629 348.387 142.429 345.855 146.649C343.323 150.763 341.319 154.35 339.842 157.409C338.47 160.468 337.785 163.158 337.785 165.479C337.785 167.8 338.787 168.961 340.791 168.961C342.057 168.961 343.587 168.539 345.38 167.695C347.174 166.745 349.073 165.585 351.077 164.213C353.081 162.736 355.139 161.049 357.249 159.15C359.358 157.251 361.363 155.352 363.262 153.453C365.583 151.027 367.851 148.6 370.066 146.174C372.387 143.642 374.497 141.216 376.396 138.895C378.4 136.574 380.194 134.464 381.776 132.565C383.358 130.561 384.677 128.873 385.732 127.501L386.998 128.451C384.466 131.826 381.249 135.888 377.345 140.635C373.442 145.277 369.275 149.866 364.844 154.402C359.464 159.888 354.506 164.161 349.969 167.22C345.433 170.279 340.95 171.809 336.519 171.809C333.354 171.809 330.822 170.86 328.923 168.961C327.024 167.062 326.075 164.688 326.075 161.84C326.075 159.835 326.233 158.042 326.55 156.46C326.972 154.877 327.446 153.664 327.974 152.82L327.657 152.503C325.758 154.508 323.701 156.671 321.486 158.991C319.27 161.207 316.897 163.264 314.365 165.163C311.833 167.062 309.09 168.644 306.136 169.91C303.288 171.176 300.176 171.809 296.8 171.809C293.53 171.809 291.051 170.807 289.363 168.802C287.675 166.693 286.831 164.266 286.831 161.523C286.831 157.514 288.993 151.712 293.319 144.117C297.644 136.521 303.499 126.657 310.884 114.525L327.657 113.892C319.323 126.657 312.519 137.154 307.244 145.383C302.075 153.506 299.49 159.572 299.49 163.58C299.49 164.846 299.807 165.901 300.44 166.745C301.178 167.589 302.127 168.011 303.288 168.011C305.292 168.011 307.666 167.167 310.409 165.479C313.257 163.791 316.211 161.523 319.27 158.675C322.33 155.827 325.336 152.556 328.29 148.864C331.35 145.172 334.092 141.321 336.519 137.312L350.128 115.158L366.427 113.892ZM430.585 115.475L447.042 114.525C446.093 116.424 444.721 118.745 442.928 121.488C441.135 124.125 439.183 127.026 437.073 130.191C434.963 133.251 432.801 136.468 430.585 139.844C428.475 143.114 426.524 146.332 424.73 149.497C422.937 152.556 421.46 155.457 420.299 158.2C419.244 160.838 418.717 163.106 418.717 165.005C418.717 167.642 420.036 168.961 422.673 168.961C425.205 168.961 428.633 167.484 432.959 164.53C437.284 161.576 441.82 157.673 446.568 152.82C448.572 150.816 450.576 148.653 452.581 146.332C454.691 144.011 456.695 141.743 458.594 139.528C460.493 137.207 462.234 135.097 463.816 133.198C465.398 131.194 466.664 129.558 467.614 128.292L468.721 128.925C465.979 132.618 462.814 136.732 459.227 141.268C455.64 145.699 451.315 150.446 446.251 155.51C441.187 160.574 436.176 164.741 431.218 168.011C426.365 171.176 421.513 172.758 416.66 172.758C413.284 172.758 410.647 171.915 408.748 170.227C406.954 168.433 406.058 166.271 406.058 163.739C406.058 162.895 406.11 162.103 406.216 161.365C406.321 160.627 406.48 160.046 406.691 159.624H406.374C403.104 163.317 399.411 166.429 395.297 168.961C391.183 171.493 386.752 172.758 382.005 172.758C379.473 172.758 377.31 172.284 375.517 171.334C373.723 170.385 372.247 169.119 371.086 167.536C370.031 165.849 369.24 164.002 368.712 161.998C368.185 159.888 367.921 157.725 367.921 155.51C367.921 150.341 369.345 145.172 372.194 140.002C375.042 134.833 378.629 130.191 382.954 126.077C387.28 121.857 392.08 118.481 397.354 115.95C402.735 113.312 407.851 111.993 412.704 111.993C416.396 111.993 419.297 112.785 421.407 114.367C423.517 115.95 425.258 118.429 426.629 121.804L430.585 115.475ZM383.112 155.985C383.112 159.044 383.587 161.734 384.537 164.055C385.592 166.271 387.754 167.378 391.025 167.378C393.24 167.273 395.561 166.376 397.987 164.688C400.414 162.895 402.734 160.679 404.95 158.042C407.271 155.405 409.433 152.503 411.438 149.339C413.548 146.068 415.341 142.798 416.818 139.528C418.4 136.257 419.614 133.198 420.458 130.35C421.407 127.396 421.882 124.917 421.882 122.912C421.882 120.064 421.354 117.848 420.299 116.266C419.244 114.684 417.187 113.892 414.128 113.892C411.702 113.892 409.222 114.631 406.691 116.108C404.264 117.585 401.891 119.536 399.57 121.963C397.354 124.389 395.192 127.132 393.082 130.191C391.077 133.145 389.337 136.205 387.86 139.369C386.383 142.534 385.222 145.594 384.378 148.547C383.534 151.396 383.112 153.875 383.112 155.985ZM458.049 117.374L459.156 114.525H471.341L483.209 94.5868L500.299 93.9539L487.165 114.525H507.262L505.838 117.374H485.425C480.677 125.18 476.669 131.774 473.398 137.154C470.128 142.429 467.491 146.859 465.486 150.446C463.587 153.928 462.163 156.723 461.214 158.833C460.37 160.943 459.948 162.789 459.948 164.372C459.948 165.743 460.317 166.851 461.055 167.695C461.794 168.539 462.849 168.961 464.22 168.961C466.858 168.961 470.339 167.642 474.664 165.005C478.99 162.262 483.631 158.517 488.59 153.769C491.965 150.394 495.658 146.438 499.666 141.901C503.675 137.365 507.42 132.776 510.902 128.134L511.851 128.925C509.425 132.09 506.365 135.941 502.673 140.477C498.981 145.013 494.919 149.497 490.488 153.928C488.062 156.354 485.53 158.675 482.893 160.89C480.361 163 477.776 164.899 475.139 166.587C472.502 168.169 469.917 169.435 467.385 170.385C464.853 171.334 462.374 171.809 459.948 171.809C456.572 171.809 453.618 171.071 451.086 169.594C448.554 168.011 447.288 165.321 447.288 161.523C447.288 158.78 447.869 155.985 449.029 153.136C450.189 150.183 451.772 146.965 453.776 143.484C455.886 140.002 458.313 136.152 461.055 131.932C463.798 127.712 466.752 122.859 469.917 117.374H458.049ZM532.79 114.525C527.832 122.332 523.559 129.031 519.972 134.622C516.385 140.108 513.432 144.802 511.111 148.706C508.895 152.609 507.207 155.827 506.047 158.358C504.992 160.785 504.464 162.789 504.464 164.372C504.464 165.638 504.675 166.693 505.097 167.536C505.625 168.275 506.363 168.644 507.313 168.644C509.423 168.644 512.377 167.431 516.174 165.005C520.078 162.578 524.93 158.411 530.733 152.503C533.054 150.077 535.322 147.703 537.537 145.383C539.752 142.956 541.81 140.635 543.709 138.42C545.713 136.205 547.454 134.2 548.931 132.407C550.513 130.613 551.779 129.189 552.728 128.134L554.152 129.084C552.887 130.772 551.304 132.723 549.405 134.939C547.612 137.048 545.66 139.317 543.55 141.743C541.44 144.064 539.278 146.385 537.062 148.706C534.847 151.027 532.684 153.242 530.574 155.352C524.456 161.471 519.181 165.743 514.75 168.169C510.425 170.596 506.416 171.809 502.724 171.809C499.242 171.809 496.552 170.86 494.653 168.961C492.755 167.062 491.805 164.583 491.805 161.523C491.805 159.413 492.227 157.251 493.071 155.035C493.809 152.714 495.128 149.866 497.027 146.49C498.926 143.114 501.458 138.947 504.623 133.989C507.788 128.925 511.744 122.701 516.491 115.317L532.79 114.525ZM541.968 79.3956C543.972 79.3956 545.713 80.134 547.19 81.611C548.772 83.0879 549.563 84.8286 549.563 86.833C549.563 88.9429 548.72 90.8945 547.032 92.6879C545.344 94.3758 543.445 95.2198 541.335 95.2198C539.014 95.2198 537.01 94.6396 535.322 93.4791C533.634 92.2132 532.79 90.367 532.79 87.9406C532.79 85.5143 533.687 83.5099 535.48 81.9274C537.379 80.2395 539.541 79.3956 541.968 79.3956ZM618.365 129.4C614.462 134.147 610.242 139.106 605.706 144.275C601.17 149.339 596.264 153.98 590.99 158.2C585.82 162.42 580.229 165.901 574.216 168.644C568.308 171.387 562.031 172.758 555.385 172.758C549.055 172.758 544.203 171.071 540.827 167.695C537.451 164.213 535.763 159.15 535.763 152.503C535.763 147.44 537.24 142.481 540.194 137.629C543.148 132.776 546.946 128.451 551.587 124.653C556.229 120.855 561.346 117.796 566.937 115.475C572.528 113.154 577.961 111.993 583.236 111.993C588.088 111.993 591.939 112.996 594.787 115C597.636 116.899 599.06 119.273 599.06 122.121C599.06 124.125 598.638 125.972 597.794 127.659C597.056 129.242 596.053 130.613 594.787 131.774C593.521 132.829 592.097 133.673 590.515 134.306C588.932 134.833 587.35 135.097 585.768 135.097C584.396 135.097 583.183 134.991 582.128 134.78C582.866 132.354 583.658 129.875 584.502 127.343C585.346 124.811 585.768 122.279 585.768 119.747C585.768 117.954 585.346 116.53 584.502 115.475C583.658 114.42 582.497 113.892 581.02 113.892C578.277 113.892 575.165 115 571.684 117.215C568.203 119.325 564.932 122.226 561.873 125.919C558.814 129.506 556.229 133.673 554.119 138.42C552.009 143.062 550.954 147.914 550.954 152.978C550.954 156.987 552.167 160.416 554.594 163.264C557.02 166.007 560.396 167.378 564.721 167.378C569.891 167.378 575.007 165.954 580.071 163.106C585.24 160.257 590.093 156.829 594.629 152.82C599.271 148.706 603.491 144.486 607.289 140.161C611.086 135.73 614.304 131.932 616.941 128.767L618.365 129.4ZM662.076 115.475L678.533 114.525C677.584 116.424 676.212 118.745 674.419 121.488C672.626 124.125 670.674 127.026 668.564 130.191C666.454 133.251 664.292 136.468 662.076 139.844C659.966 143.114 658.015 146.332 656.221 149.497C654.428 152.556 652.951 155.457 651.79 158.2C650.735 160.838 650.208 163.106 650.208 165.005C650.208 167.642 651.527 168.961 654.164 168.961C656.696 168.961 660.124 167.484 664.45 164.53C668.775 161.576 673.311 157.673 678.059 152.82C680.063 150.816 682.067 148.653 684.072 146.332C686.182 144.011 688.186 141.743 690.085 139.528C691.984 137.207 693.725 135.097 695.307 133.198C696.889 131.194 698.155 129.558 699.105 128.292L700.212 128.925C697.47 132.618 694.305 136.732 690.718 141.268C687.131 145.699 682.806 150.446 677.742 155.51C672.678 160.574 667.667 164.741 662.709 168.011C657.856 171.176 653.004 172.758 648.151 172.758C644.775 172.758 642.138 171.915 640.239 170.227C638.445 168.433 637.549 166.271 637.549 163.739C637.549 162.895 637.601 162.103 637.707 161.365C637.812 160.627 637.971 160.046 638.182 159.624H637.865C634.595 163.317 630.902 166.429 626.788 168.961C622.674 171.493 618.243 172.758 613.496 172.758C610.964 172.758 608.801 172.284 607.008 171.334C605.214 170.385 603.738 169.119 602.577 167.536C601.522 165.849 600.731 164.002 600.203 161.998C599.676 159.888 599.412 157.725 599.412 155.51C599.412 150.341 600.836 145.172 603.685 140.002C606.533 134.833 610.12 130.191 614.445 126.077C618.771 121.857 623.571 118.481 628.845 115.95C634.225 113.312 639.342 111.993 644.195 111.993C647.887 111.993 650.788 112.785 652.898 114.367C655.008 115.95 656.749 118.429 658.12 121.804L662.076 115.475ZM614.603 155.985C614.603 159.044 615.078 161.734 616.028 164.055C617.083 166.271 619.245 167.378 622.516 167.378C624.731 167.273 627.052 166.376 629.478 164.688C631.905 162.895 634.225 160.679 636.441 158.042C638.762 155.405 640.924 152.503 642.929 149.339C645.039 146.068 646.832 142.798 648.309 139.528C649.891 136.257 651.105 133.198 651.949 130.35C652.898 127.396 653.373 124.917 653.373 122.912C653.373 120.064 652.845 117.848 651.79 116.266C650.735 114.684 648.678 113.892 645.619 113.892C643.193 113.892 640.713 114.631 638.182 116.108C635.755 117.585 633.382 119.536 631.061 121.963C628.845 124.389 626.683 127.132 624.573 130.191C622.568 133.145 620.828 136.205 619.351 139.369C617.874 142.534 616.713 145.594 615.869 148.547C615.025 151.396 614.603 153.875 614.603 155.985Z" fill="url(#paint0_radial_29_55)"/>
</g>
<defs>
<filter id="filter0_d_29_55" x="50.621" y="53.9186" width="653.395" height="175.186" filterUnits="userSpaceOnUse" color-interpolation-filters="sRGB">
<feFlood flood-opacity="0" result="BackgroundImageFix"/>
<feColorMatrix in="SourceAlpha" type="matrix" values="0 0 0 0 0 0 0 0 0 0 0 0 0 0 0 0 0 0 127 0" result="hardAlpha"/>
<feOffset dy="3.80397"/>
<feGaussianBlur stdDeviation="1.90198"/>
<feComposite in2="hardAlpha" operator="out"/>
<feColorMatrix type="matrix" values="0 0 0 0 0 0 0 0 0 0 0 0 0 0 0 0 0 0 0.25 0"/>
<feBlend mode="normal" in2="BackgroundImageFix" result="effect1_dropShadow_29_55"/>
<feBlend mode="normal" in="SourceGraphic" in2="effect1_dropShadow_29_55" result="shape"/>
</filter>
<radialGradient id="paint0_radial_29_55" cx="0" cy="0" r="1" gradientUnits="userSpaceOnUse" gradientTransform="translate(377.046 121.758) rotate(90) scale(121.531 357.216)">
<stop stop-color="#43608D"/>
<stop offset="0.105" stop-color="white"/>
<stop offset="0.175" stop-color="#E3ECF5"/>
<stop offset="0.51" stop-color="#5B91C8"/>
<stop offset="0.655" stop-color="white"/>
<stop offset="0.87" stop-color="#232C3C"/>
<stop offset="1" stop-color="white"/>
</radialGradient>
</defs>
</svg>
