<?xml version="1.0" encoding="UTF-8"?>
<svg version="1.1" xmlns="http://www.w3.org/2000/svg" width="955" height="261">
<path d="M0 0 C0.92022949 0.31203369 1.84045898 0.62406738 2.78857422 0.94555664 C30.30501459 10.5644773 51.80962116 30.97003206 64.75 56.875 C66.78439792 61.42220968 68.33269554 66.10244418 69.75 70.875 C70.20826172 72.39287109 70.20826172 72.39287109 70.67578125 73.94140625 C75.81817862 91.85449662 75.90486136 112.96745989 70.75 130.875 C70.49476563 131.85339844 70.23953125 132.83179688 69.9765625 133.83984375 C67.26024955 143.12265634 62.46632404 151.48414654 57.75 159.875 C57.20472656 160.86628906 56.65945313 161.85757813 56.09765625 162.87890625 C55.65292969 163.53761719 55.20820312 164.19632813 54.75 164.875 C54.09 164.875 53.43 164.875 52.75 164.875 C52.37875 165.71998047 52.37875 165.71998047 52 166.58203125 C40.84158634 187.05074631 15.81709167 199.54645223 -5.48046875 206.26171875 C-24.131382 211.51184739 -45.89802777 211.00014674 -64.25 204.875 C-65.24531738 204.56151611 -65.24531738 204.56151611 -66.26074219 204.24169922 C-94.08760409 195.36715057 -115.88647861 175.63246731 -129.30224609 149.85302734 C-141.33128124 125.59931479 -144.30239877 96.85361211 -136.03125 70.9296875 C-130.60754286 55.02663814 -122.77319059 41.09390023 -111.25 28.875 C-110.79334961 28.37742188 -110.33669922 27.87984375 -109.86621094 27.3671875 C-103.61553779 20.57896535 -97.20674353 15.49504463 -89.25 10.875 C-88.08597656 10.10929687 -88.08597656 10.10929687 -86.8984375 9.328125 C-62.54086556 -6.47578455 -27.21029751 -9.28136184 0 0 Z " fill="#FDFEFE" transform="translate(829.25,31.125)"/>
<path d="M0 0 C6.20286259 5.88476708 9.02456406 15.79587837 12.3125 23.5625 C13.0669862 25.33374377 13.82147578 27.10498609 14.57601929 28.87620544 C15.47169602 30.98032028 16.36580027 33.08509892 17.25976562 35.18994141 C19.92220962 41.45608315 22.59452492 47.71801334 25.265625 53.98046875 C27.10129072 58.28545086 28.93675317 62.59051957 30.7720108 66.89567566 C31.29914606 68.13222606 31.82630163 69.36876781 32.35347748 70.6053009 C34.1141301 74.73519309 35.87369973 78.86554546 37.6328125 82.99609375 C38.08754944 84.06272751 38.54228638 85.12936127 39.01080322 86.22831726 C39.43278992 87.21959122 39.85477661 88.21086517 40.28955078 89.23217773 C40.65750763 90.09592514 41.02546448 90.95967255 41.40457153 91.84959412 C41.74543793 92.66235306 42.08630432 93.475112 42.4375 94.3125 C42.80535614 95.17782852 43.17321228 96.04315704 43.55221558 96.93470764 C44.66268721 99.91733209 44.78077083 102.1544084 44.4375 105.3125 C43.375 107.1875 43.375 107.1875 41.4375 108.3125 C38 108.8125 38 108.8125 34.4375 108.3125 C29.9961858 104.01532581 28.0195057 98.22713095 25.6875 92.625 C25.07068359 91.18157227 25.07068359 91.18157227 24.44140625 89.70898438 C21.4375 82.59840895 21.4375 82.59840895 21.4375 80.3125 C5.2675 80.3125 -10.9025 80.3125 -27.5625 80.3125 C-27.8925 81.9625 -28.2225 83.6125 -28.5625 85.3125 C-29.87441816 88.93553397 -31.42015036 92.45871722 -32.9375 96 C-33.33710937 96.96228516 -33.73671875 97.92457031 -34.1484375 98.91601562 C-34.5403125 99.83447266 -34.9321875 100.75292969 -35.3359375 101.69921875 C-35.69091309 102.53670654 -36.04588867 103.37419434 -36.41162109 104.23706055 C-37.5625 106.3125 -37.5625 106.3125 -40.5625 108.3125 C-44.40902331 108.88538645 -45.95693254 108.75559814 -49.125 106.4375 C-51.33196249 101.63975546 -49.28485566 98.11676478 -47.5625 93.3125 C-46.18916166 89.81499025 -44.70516889 86.3744989 -43.1875 82.9375 C-42.37717876 81.07570593 -41.56727922 79.21372826 -40.7578125 77.3515625 C-40.18208496 76.03333496 -40.18208496 76.03333496 -39.59472656 74.68847656 C-38.38705811 71.90866828 -37.21728163 69.11466242 -36.0625 66.3125 C-32.70661541 58.2101074 -29.22209872 50.16221476 -25.76074219 42.10449219 C-24.19564322 38.45769679 -22.63551265 34.80878884 -21.07641602 31.15942383 C-20.32191684 29.39763187 -19.56462664 27.63703238 -18.80444336 25.87768555 C-17.03647907 21.78449338 -15.3007262 17.68592057 -13.65234375 13.54296875 C-13.35086426 12.80473877 -13.04938477 12.06650879 -12.73876953 11.3059082 C-12.18287501 9.94256824 -11.64217321 8.57288248 -11.12060547 7.19604492 C-9.71355202 3.79816054 -8.63916051 2.36213277 -5.515625 0.33984375 C-2.5625 -0.6875 -2.5625 -0.6875 0 0 Z M-3.5625 25.3125 C-5.18183194 28.93714269 -6.79915425 32.56267526 -8.41479492 36.18896484 C-9.22799764 38.01314423 -10.04268916 39.83665969 -10.85742188 41.66015625 C-17.28720569 53.60344759 -17.28720569 53.60344759 -20.5625 66.3125 C-8.6825 66.3125 3.1975 66.3125 15.4375 66.3125 C12.34572492 58.27388479 9.23744789 50.32669031 5.8125 42.4375 C5.4309375 41.55320312 5.049375 40.66890625 4.65625 39.7578125 C3.92122815 38.05458945 3.18528067 36.35176543 2.44824219 34.64941406 C1.10356295 31.54041172 -0.23021187 28.42682957 -1.5625 25.3125 C-2.2225 25.3125 -2.8825 25.3125 -3.5625 25.3125 Z " fill="#FDFDFD" transform="translate(109.5625,63.6875)"/>
<path d="M0 0 C1.12148437 0.56074219 1.12148437 0.56074219 2.265625 1.1328125 C2.83796875 1.41898437 3.4103125 1.70515625 4 2 C4.28875 1.195625 4.5775 0.39125 4.875 -0.4375 C6 -3 6 -3 8 -4 C13.28320383 -4.44963437 13.28320383 -4.44963437 15.65722656 -2.96044922 C17.70541719 0.0299091 17.50110628 3.1101984 17.546875 6.6171875 C17.56778702 7.40203018 17.58869904 8.18687286 17.61024475 8.99549866 C17.67381641 11.62194327 17.71338406 14.24804907 17.75 16.875 C17.76646576 17.77751495 17.78293152 18.68002991 17.79989624 19.6098938 C18.08115709 35.19154055 18.05273773 50.77717538 17.85583496 66.35968018 C17.82694578 68.74482806 17.8040775 71.13005648 17.78723145 73.51531982 C17.75995008 76.87414769 17.70618414 80.23149289 17.64453125 83.58984375 C17.64010513 84.60047379 17.63567902 85.61110382 17.63111877 86.65235901 C17.60823288 87.57910934 17.58534698 88.50585968 17.56176758 89.46069336 C17.5439196 90.67298866 17.5439196 90.67298866 17.52571106 91.90977478 C17 94 17 94 15.15629578 95.79151917 C13 97 13 97 9.9375 96.875 C6.79812285 95.93986638 5.85156286 95.62933324 4 93 C3.66920662 90.42182889 3.5116437 88.07079833 3.48828125 85.48828125 C3.47033005 84.76005661 3.45237885 84.03183197 3.43388367 83.28153992 C3.37975787 80.95858529 3.3458792 78.63583634 3.3125 76.3125 C3.27932875 74.73629949 3.24483927 73.16012612 3.20898438 71.58398438 C3.1240307 67.72280464 3.05723124 63.86168613 3 60 C2.32163086 60.34426025 1.64326172 60.68852051 0.94433594 61.04321289 C0.05004883 61.4943042 -0.84423828 61.94539551 -1.765625 62.41015625 C-3.09255371 63.08123413 -3.09255371 63.08123413 -4.44628906 63.76586914 C-12.80378106 67.80479094 -19.99358563 67.15304855 -29 65 C-39.11256024 61.18267594 -45.57730491 55.30561256 -51 46 C-54.87676684 37.09023762 -55.07295879 28.66645047 -52.046875 19.48828125 C-49.36457969 13.1128256 -45.2333321 7.50648042 -40 3 C-39.34 3 -38.68 3 -38 3 C-38 2.34 -38 1.68 -38 1 C-25.59411058 -5.57888075 -12.6577233 -6.7213492 0 0 Z M-36 17 C-39.87187854 22.24741433 -40.74405746 27.51587868 -40.515625 33.9609375 C-39.40591461 40.50150329 -36.02790874 45.31007605 -31 49.5 C-24.76380691 52.61809655 -19.51815086 54.15139974 -12.578125 52.3828125 C-4.96694376 49.77655953 -0.67610843 45.42139654 3.4375 38.625 C4.86921431 31.94366657 4.79120222 25.82371538 1.3203125 19.81640625 C-3.15628977 13.65776703 -8.64001781 10.6400697 -16 9 C-23.20883729 7.94871123 -31.02750211 11.88543075 -36 17 Z " fill="#FDFDFE" transform="translate(214,106)"/>
<path d="M0 0 C10.5453974 -1.02974947 10.5453974 -1.02974947 15.1875 2.4375 C17.6093551 4.9295538 18.53281601 6.84685055 18.8125 10.3125 C18.37638044 15.6640504 15.82960769 20.27838559 12 24 C10.33579249 24.34540156 8.66901603 24.67863667 7 25 C5.05195257 26.64248872 5.05195257 26.64248872 3.4375 28.75 C2.84710937 29.46671875 2.25671875 30.1834375 1.6484375 30.921875 C1.10445312 31.60765625 0.56046875 32.2934375 0 33 C-0.804375 33.99 -1.60875 34.98 -2.4375 36 C-2.953125 36.66 -3.46875 37.32 -4 38 C-3.01 38.66 -2.02 39.32 -1 40 C-1.33 41.65 -1.66 43.3 -2 45 C4.71984742 47.35061856 9.3616382 48.67496398 16.25 46.1875 C19.46183392 44.00804127 19.9112539 41.4614797 20.625 37.75 C20.810625 36.38875 20.810625 36.38875 21 35 C21.66 35 22.32 35 23 35 C23.1546875 34.1646875 23.1546875 34.1646875 23.3125 33.3125 C24 31 24 31 25.53515625 28.76953125 C27.32840457 25.37909644 27.27378579 23.18216586 27.125 19.375 C26.91493776 13.25518672 26.91493776 13.25518672 28 10 C31.76363815 7.29018053 33.79162168 6.04394103 38.4375 5.875 C44.88921349 7.91238321 50.44052612 12.22173514 54 18 C54.45496864 21.1220134 54.33189811 24.16755812 54.1875 27.3125 C54.13437234 28.95427435 54.08614659 30.5962151 54.04296875 32.23828125 C54.02153809 33.03186035 54.00010742 33.82543945 53.97802734 34.64306641 C53.99992076 36.99149969 54.22584032 39.2186305 54.55078125 41.54296875 C54.69902344 42.68378906 54.84726562 43.82460937 55 45 C54.67 45.33 54.34 45.66 54 46 C54.04125 47.258125 54.0825 48.51625 54.125 49.8125 C54.13941009 52.49758047 54.05071932 53.88662739 52.9375 56.375 C47.59499636 60.8558095 40.7060911 60.26106985 34.0859375 60.36328125 C30.35597647 59.92418457 27.6756161 58.6756161 25 56 C24.92794489 54.31391034 24.91613932 52.62499341 24.9375 50.9375 C24.94652344 50.01839844 24.95554687 49.09929687 24.96484375 48.15234375 C24.97644531 47.44207031 24.98804688 46.73179687 25 46 C21.31755403 47.93812946 19.69900057 49.23792732 18 53 C17.01 53.66 16.02 54.32 15 55 C15.226875 55.763125 15.45375 56.52625 15.6875 57.3125 C16 60 16 60 14.9375 61.8125 C12.05898615 63.57675042 10.31843113 63.53094898 7 63 C6.278125 62.2575 5.55625 61.515 4.8125 60.75 C-0.26606267 55.78429428 -7.28062196 54.46827436 -14 52.625 C-23.84143689 49.69916741 -30.70890743 45.01772396 -37 37 C-37.98506852 35.98528821 -38.9804715 34.98008246 -40 34 C-38.80311162 28.45079022 -37.42478836 25.80737603 -33 22 C-32.175 21.236875 -31.35 20.47375 -30.5 19.6875 C-28 18 -28 18 -25.5 17.4375 C-21.89279481 18.24912117 -20.40978848 20.27313409 -18 23 C-17.4225 23.515625 -16.845 24.03125 -16.25 24.5625 C-13.23452446 28.03029687 -13.70949641 32.64244621 -14 37 C-14.83402748 39.76877727 -15.87478564 42.3276159 -17 45 C-12.20558091 42.94524896 -10.18583544 39.82467184 -7.890625 35.3359375 C-6.52740748 31.76048103 -6.79769744 29.60690769 -8 26 C-10.87250624 20.32562292 -14.02666727 17.99111091 -20 16 C-18.51510938 13.03021875 -16.38939036 12.9213916 -13.3125 11.8125 C-6.94333749 9.264835 -3.07145943 6.14291886 0 0 Z " fill="#398497" transform="translate(772,102)"/>
<path d="M0 0 C0.99 0.66 1.98 1.32 3 2 C3.45375 1.195625 3.9075 0.39125 4.375 -0.4375 C6 -3 6 -3 8 -4 C11.51129335 -4.38166232 13.30026783 -4.53011434 16.16395569 -2.3605957 C18.5051344 0.64944952 18.50112662 2.29531404 18.50170898 6.08203125 C18.51108994 7.31010498 18.52047089 8.53817871 18.53013611 9.8034668 C18.51965771 11.13981829 18.50828869 12.47616306 18.49609375 13.8125 C18.49624878 15.18725664 18.49773845 16.56201371 18.50050354 17.93676758 C18.50188674 20.81513845 18.48934376 23.69301055 18.46655273 26.57128906 C18.4381675 30.2568933 18.44090606 33.94166905 18.45364285 37.62733459 C18.46060496 40.46528168 18.45280483 43.30303798 18.44038582 46.14096069 C18.43587643 47.49969755 18.43553005 48.85845492 18.43945122 50.2171936 C18.44236828 52.11748638 18.42367891 54.01777509 18.40405273 55.91796875 C18.39864975 56.99844482 18.39324677 58.0789209 18.38768005 59.19213867 C17.946834 62.3850669 17.31218738 63.77099043 15 66 C9.90983607 66.80796253 9.90983607 66.80796253 7 66 C4.5 63 4.5 63 3 60 C2.46632813 60.33773437 1.93265625 60.67546875 1.3828125 61.0234375 C-8.24453192 66.78651911 -16.83192385 67.99397153 -27.65625 65.3515625 C-37.17942778 62.43575807 -45.14868345 55.96961646 -50.03515625 47.22265625 C-53.84472208 38.44677383 -55.21793428 29.84815791 -52.2421875 20.66015625 C-48.13560548 10.56624666 -41.14628531 1.92401867 -31 -2.375 C-20.57464062 -5.78797873 -9.6493091 -5.28782139 0 0 Z M-37 19 C-40.09551656 25.10028507 -40.8571883 31.41332598 -39 38 C-36.35951988 44.92417749 -32.69792573 48.86122309 -26 52 C-19.64282292 54.11905903 -13.75336705 53.70815946 -7.6875 50.875 C-1.66179943 47.52633752 1.74495074 43.58942967 4 37 C5.15972259 29.05284837 3.68393808 22.53627631 -1 16 C-5.574018 11.37165874 -10.96744506 9.53059933 -17.375 8.6875 C-25.33790843 9.63546529 -31.91883481 12.65746828 -37 19 Z " fill="#FDFEFE" transform="translate(370,106)"/>
<path d="M0 0 C0.474375 -0.804375 0.94875 -1.60875 1.4375 -2.4375 C3 -5 3 -5 4 -6 C10.29735853 -6.466471 10.29735853 -6.466471 12.70230103 -4.86987305 C14.57743038 -2.1679723 14.38122096 -0.10288323 14.38818359 3.16796875 C14.39764008 4.43938721 14.40709656 5.71080566 14.4168396 7.02075195 C14.41146991 8.40967113 14.40531696 9.79858748 14.3984375 11.1875 C14.40045839 12.61092274 14.40336995 14.03434447 14.40713501 15.45776367 C14.41155771 18.44036724 14.40512935 21.42270121 14.39111328 24.40527344 C14.37402103 28.22885091 14.38386255 32.05179666 14.40183067 35.87535095 C14.41267019 38.81446087 14.40922149 41.75342097 14.4014473 44.6925354 C14.39944573 46.10234654 14.40190306 47.51217128 14.40888596 48.92196655 C14.41650223 50.89198548 14.40283579 52.86205209 14.38818359 54.83203125 C14.38579681 55.95327393 14.38341003 57.0745166 14.38095093 58.22973633 C14 61 14 61 12.69448853 62.86206055 C9.84046922 64.77868678 7.31607011 64.35529323 4 64 C1.38406847 62.16884793 1.03010545 61.09031634 0 58 C-0.6290625 58.33773437 -1.258125 58.67546875 -1.90625 59.0234375 C-12.29883612 64.43885135 -20.54027935 66.57748758 -32.08984375 63.05859375 C-43.17628938 58.82253697 -49.75353973 52.61372718 -55 42 C-58.2463491 33.88412726 -57.96754356 24.77391288 -55.1640625 16.546875 C-51.19357944 7.85977785 -45.44122424 1.41587176 -37 -3 C-36.39929688 -3.33773437 -35.79859375 -3.67546875 -35.1796875 -4.0234375 C-24.10375062 -9.24974538 -9.86377324 -6.57584883 0 0 Z M-32 10 C-32.63035156 10.33 -33.26070312 10.66 -33.91015625 11 C-39.08374746 14.16346978 -41.44041897 18.19540551 -43 24 C-44.05399251 30.92157966 -42.99505646 37.17990381 -39 43 C-33.84954446 48.02142534 -28.51796632 51.0004655 -21.3125 51.4375 C-14.77601964 51.28140495 -9.02046828 48.9780261 -4.33203125 44.35546875 C-0.30424358 39.12288828 1.27001326 33.6523082 0.9375 27.0625 C0.08710713 20.76577074 -2.27896308 16.46342395 -6.98046875 12.20703125 C-14.92306001 6.28874643 -23.22423733 5.32932382 -32 10 Z " fill="#FDFEFE" transform="translate(620,108)"/>
<path d="M0 0 C3.12976617 2.01341645 5.75490255 4.01277312 8 7 C8.68099219 10.71450286 8.752541 12.62771935 6.9375 15.9375 C3.68946805 17.71867881 1.667666 17.53240313 -2 17 C-4.0703125 15.6875 -4.0703125 15.6875 -6.25 14.0625 C-11.34196889 10.42290934 -15.78010155 9.50065604 -22 10 C-27.74289956 11.19988535 -31.82920395 13.24428633 -35.5 17.875 C-39.12301108 23.41186156 -40.67726882 28.34018994 -40 35 C-37.72631359 42.78771633 -33.55597994 47.3623274 -26.625 51.375 C-18.69279046 53.26362132 -12.17867204 51.70712079 -5 48 C-4.31808594 47.45730469 -3.63617187 46.91460937 -2.93359375 46.35546875 C-1 45 -1 45 2.625 45.125 C6 46 6 46 8 49 C8.064304 52.40811196 7.85712192 54.86612712 5.75390625 57.6484375 C-0.67009853 63.71812068 -9.69073576 66.53031823 -18.39453125 67.09765625 C-29.60422995 66.67750263 -38.79046194 62.05959055 -46.3984375 54 C-52.47945629 46.40614238 -55.33143193 37.10974949 -54.87890625 27.40234375 C-53.3646515 17.55188242 -48.23750213 8.96862673 -40.53125 2.7265625 C-28.31014745 -5.60943646 -13.23404886 -7.16493091 0 0 Z " fill="#FDFDFD" transform="translate(547,106)"/>
<path d="M0 0 C3.51510471 1.19663139 4.20067178 1.75197955 5.9375 5 C6.3776312 8.04837759 6.35458855 11.07270919 6.34375 14.1484375 C6.35458618 15.03858551 6.36542236 15.92873352 6.37658691 16.84585571 C6.41083277 19.68897773 6.4264347 22.53169892 6.4375 25.375 C6.45209907 29.11236302 6.48585412 32.84883562 6.53125 36.5859375 C6.52822876 37.43924652 6.52520752 38.29255554 6.52209473 39.17172241 C6.59514994 45.00602521 7.49837255 49.38019644 11.625 53.8125 C16.6041781 56.36937524 20.5573138 56.42989406 25.75 54.8125 C29.97487982 52.41011735 31.42047475 50.55107575 32.9375 46 C33.02607783 44.6606347 33.06259656 43.31738848 33.06347656 41.97509766 C33.06728333 41.17061188 33.07109009 40.3661261 33.07501221 39.53726196 C33.07603943 38.67160614 33.07706665 37.80595032 33.078125 36.9140625 C33.09645037 35.07811257 33.11602043 33.24217471 33.13671875 31.40625 C33.1657023 28.51378961 33.18750049 25.62210733 33.18798828 22.72949219 C33.1913239 19.93614785 33.22587479 17.1445955 33.265625 14.3515625 C33.2585553 13.48995514 33.2514856 12.62834778 33.24420166 11.7406311 C33.33360522 7.32480828 33.53347691 5.52406855 36.31542969 1.91552734 C38.9375 0 38.9375 0 41.5625 0 C44.1787789 1.10159111 45.36184015 1.63651022 46.9375 4 C48.17155819 10.86773289 48.12359236 17.70117768 48.12280273 24.65063477 C48.12498383 26.79659024 48.14316732 28.94202611 48.16210938 31.08789062 C48.216563 43.82459327 47.44822978 53.85999286 38.4921875 63.56640625 C32.21271609 69.31400987 25.25094691 70.5945274 16.96484375 70.34375 C8.36635797 69.36740581 2.32855754 65.66749177 -3.0625 59 C-6.19284015 54.51317912 -7.17251304 50.80504233 -7.23950195 45.38671875 C-7.25233719 44.47897705 -7.26517242 43.57123535 -7.27839661 42.63598633 C-7.28578354 41.66298584 -7.29317047 40.68998535 -7.30078125 39.6875 C-7.308853 38.68162842 -7.31692474 37.67575684 -7.32524109 36.6394043 C-7.33905641 34.5145031 -7.34978995 32.38957995 -7.35766602 30.26464844 C-7.37493657 27.01194677 -7.41885237 23.76024673 -7.46289062 20.5078125 C-7.47301306 18.4427158 -7.48153056 16.37761048 -7.48828125 14.3125 C-7.50578934 13.33949951 -7.52329742 12.36649902 -7.54133606 11.36401367 C-7.51972598 4.65886282 -7.51972598 4.65886282 -5.22729492 1.35546875 C-3.0625 0 -3.0625 0 0 0 Z " fill="#FDFDFE" transform="translate(257.0625,102)"/>
<path d="M0 0 C2.73058525 1.54033014 3.80675713 2.71801126 5.4375 5.375 C5.77807617 7.75683594 5.77807617 7.75683594 5.73046875 10.359375 C5.72080078 11.29394531 5.71113281 12.22851562 5.70117188 13.19140625 C5.67603516 14.15949219 5.65089844 15.12757812 5.625 16.125 C5.60469727 17.60033203 5.60469727 17.60033203 5.58398438 19.10546875 C5.54868726 21.52920415 5.49938054 23.95182145 5.4375 26.375 C6.32953125 26.32859375 7.2215625 26.2821875 8.140625 26.234375 C9.31109375 26.19828125 10.4815625 26.1621875 11.6875 26.125 C13.42773438 26.05539063 13.42773438 26.05539063 15.203125 25.984375 C18.4375 26.375 18.4375 26.375 20.86328125 28.19921875 C22.4375 30.375 22.4375 30.375 22.375 33.4375 C21.39397234 36.51138667 21.01390182 37.53471299 18.4375 39.375 C15.30078125 39.66796875 15.30078125 39.66796875 11.75 39.5625 C9.98076172 39.52189453 9.98076172 39.52189453 8.17578125 39.48046875 C7.27214844 39.44566406 6.36851562 39.41085938 5.4375 39.375 C5.44194122 40.01757751 5.44638245 40.66015503 5.45095825 41.32220459 C5.49517869 48.00547056 5.52536112 54.68869502 5.54736328 61.37207031 C5.55742561 63.86687915 5.57107679 66.36167618 5.58837891 68.85644531 C5.61261668 72.44078484 5.62398082 76.02496853 5.6328125 79.609375 C5.64313507 80.72616638 5.65345764 81.84295776 5.66409302 82.99359131 C5.66424408 84.03436829 5.66439514 85.07514526 5.66455078 86.14746094 C5.668992 87.06235291 5.67343323 87.97724487 5.67800903 88.91986084 C5.42021223 91.55147521 4.85741405 93.15620631 3.4375 95.375 C0.63879973 96.77435013 -1.46748792 96.62765405 -4.5625 96.375 C-6.59917615 94.82993534 -7.42323078 93.65353844 -8.5625 91.375 C-8.65289906 89.7101936 -8.68005257 88.04176579 -8.67602539 86.37451172 C-8.67594986 85.33358368 -8.67587433 84.29265564 -8.67579651 83.22018433 C-8.67063522 82.09307037 -8.66547394 80.96595642 -8.66015625 79.8046875 C-8.6587413 78.65332306 -8.65732635 77.50195862 -8.65586853 76.31570435 C-8.65025716 72.62711014 -8.6377027 68.93857595 -8.625 65.25 C-8.61998647 62.75390712 -8.61542331 60.2578133 -8.61132812 57.76171875 C-8.60028403 51.63279191 -8.5835348 45.50390024 -8.5625 39.375 C-9.45453125 39.43300781 -10.3465625 39.49101563 -11.265625 39.55078125 C-12.43609375 39.59589844 -13.6065625 39.64101562 -14.8125 39.6875 C-15.97265625 39.74550781 -17.1328125 39.80351563 -18.328125 39.86328125 C-21.5625 39.375 -21.5625 39.375 -23.98828125 37.01953125 C-25.5625 34.375 -25.5625 34.375 -25.5 31.75 C-24.45593282 29.10502982 -23.84923076 28.05161562 -21.5625 26.375 C-18.42578125 26.08203125 -18.42578125 26.08203125 -14.875 26.1875 C-13.69550781 26.21457031 -12.51601563 26.24164063 -11.30078125 26.26953125 C-10.39714844 26.30433594 -9.49351562 26.33914062 -8.5625 26.375 C-8.57297363 25.75979492 -8.58344727 25.14458984 -8.59423828 24.51074219 C-8.63588695 21.71553657 -8.66185416 18.92039634 -8.6875 16.125 C-8.70425781 15.15691406 -8.72101563 14.18882813 -8.73828125 13.19140625 C-8.74472656 12.25683594 -8.75117188 11.32226562 -8.7578125 10.359375 C-8.76828613 9.50053711 -8.77875977 8.64169922 -8.78955078 7.75683594 C-8.54191626 5.15906997 -7.93203931 3.58205359 -6.5625 1.375 C-4.04006278 -0.53857307 -3.10294071 -0.75681481 0 0 Z " fill="#FDFDFE" transform="translate(425.5625,75.625)"/>
<path d="M0 0 C2.9375 0.4375 2.9375 0.4375 4.75 1.8125 C7.08618334 5.00938246 7.06851432 7.18604114 7.08276367 11.10888672 C7.09233345 12.89116165 7.09233345 12.89116165 7.10209656 14.70944214 C7.10320938 15.99899811 7.1043222 17.28855408 7.10546875 18.6171875 C7.10879715 19.93663361 7.11212555 21.25607971 7.11555481 22.61550903 C7.12154719 25.41148699 7.12339464 28.20743404 7.12280273 31.00341797 C7.12270119 34.5835316 7.13634435 38.16344654 7.15357494 41.74351311 C7.16470316 44.49733386 7.16672168 47.25110673 7.16619301 50.00494766 C7.16794523 51.9658683 7.17878238 53.926774 7.18974304 55.88766479 C7.18666641 57.0821524 7.18358978 58.27664001 7.18041992 59.50732422 C7.18184494 60.55830292 7.18326996 61.60928162 7.18473816 62.69210815 C6.93378276 65.47877712 6.46362381 67.11099682 4.9375 69.4375 C1.8542365 70.97913175 -0.67128099 70.73497535 -4.0625 70.4375 C-6.36368174 68.21494747 -7.01103527 66.81024506 -7.45018005 63.62963867 C-7.45558304 62.5491626 -7.46098602 61.46868652 -7.46655273 60.35546875 C-7.47923691 59.12739502 -7.49192108 57.89932129 -7.50498962 56.6340332 C-7.50293825 55.29768709 -7.49995028 53.96134213 -7.49609375 52.625 C-7.50065631 51.25024152 -7.5059621 49.87548531 -7.51197815 48.50073242 C-7.52090436 45.6224642 -7.51849152 42.74447353 -7.50854492 39.86621094 C-7.49704806 36.18050149 -7.51727856 32.49574912 -7.54646206 28.81016541 C-7.56482005 25.97222832 -7.56453266 23.13452087 -7.55882454 20.29653931 C-7.55867131 18.93778133 -7.56471699 17.57900781 -7.57711601 16.2203064 C-7.59201561 14.32010156 -7.5787242 12.41973906 -7.56420898 10.51953125 C-7.56404282 9.43905518 -7.56387665 8.3585791 -7.56370544 7.24536133 C-6.74173863 2.64052542 -4.57752689 0.65393241 0 0 Z " fill="#FDFEFE" transform="translate(469.0625,101.5625)"/>
<path d="M0 0 C2.6875 2.25 2.6875 2.25 5 5 C5.80244141 5.87978516 5.80244141 5.87978516 6.62109375 6.77734375 C9.66885148 11.69001839 8.60317973 18.79934358 7.56640625 24.30078125 C6.38151427 27.73770396 4.89263365 29.07086179 1.875 31.0625 C-4.60958398 32.63135096 -9.7696201 31.03754397 -15.5625 27.875 C-18.64124844 25.42794695 -18.98204737 24.11482691 -19.6015625 20.15234375 C-20.03617143 9.51108333 -20.03617143 9.51108333 -17.6875 6.0859375 C-15.00099343 4.35712077 -12.07611669 3.75451919 -9 3 C-9 2.34 -9 1.68 -9 1 C-5.63633609 -0.1212213 -3.52465728 -0.42295887 0 0 Z " fill="#378497" transform="translate(852,123)"/>
<path d="M0 0 C6.11125231 0.97004005 6.11125231 0.97004005 8.9375 3.625 C9.625 7.25 9.625 7.25 9.9375 10.625 C10.5975 10.955 11.2575 11.285 11.9375 11.625 C11.2775 11.625 10.6175 11.625 9.9375 11.625 C9.999375 12.511875 10.06125 13.39875 10.125 14.3125 C9.90993411 18.11199742 9.32263233 19.68333679 6.9375 22.625 C2.85957584 25.47006337 -0.10903159 25.99575374 -5.02734375 25.15234375 C-8.23374803 24.32150963 -11.07707944 23.05551402 -14.0625 21.625 C-13.4025 19.975 -12.7425 18.325 -12.0625 16.625 C-13.3825 15.965 -14.7025 15.305 -16.0625 14.625 C-14.6360369 12.96079305 -13.2075872 11.29928207 -11.765625 9.6484375 C-10.05225854 7.66538841 -10.05225854 7.66538841 -8.609375 5.6015625 C-6.05953884 2.16909075 -4.43683471 0.17480962 0 0 Z " fill="#F7FBFB" transform="translate(783.0625,125.375)"/>
<path d="M0 0 C4.66803963 2.79029436 9.2808365 6.24146388 12 11 C12.65991861 15.29793147 12.47008703 18.29486945 10 22 C10 21.01 10 20.02 10 19 C9.319375 18.979375 8.63875 18.95875 7.9375 18.9375 C4.76304846 17.92437717 3.99965582 17.13928633 1.8125 14.75 C-2.2175607 10.42570921 -6.64458314 8.42094187 -12 6 C-12.33 10.62 -12.66 15.24 -13 20 C-13.66 19.67 -14.32 19.34 -15 19 C-15.02701408 16.89590361 -15.04640223 14.79170822 -15.0625 12.6875 C-15.07410156 11.51574219 -15.08570313 10.34398438 -15.09765625 9.13671875 C-15 6 -15 6 -14 3 C-9.02887338 -0.57921116 -6.11126515 -1.9298732 0 0 Z " fill="#518E9F" transform="translate(814,109)"/>
<path d="M0 0 C2.71945106 3.54352714 3.08957928 5.24497461 2.5625 9.6875 C1 13 1 13 -1.8125 15 C-5.24395421 16.07653465 -6.68045837 16.31034538 -10 15 C-12.51919084 13.04062934 -13.76518132 11.59487398 -14.9375 8.625 C-15.02441225 4.97468567 -14.01258142 3.01887213 -12 0 C-7.75388064 -2.83074624 -4.52173042 -2.00965796 0 0 Z " fill="#FCFDFD" transform="translate(475,78)"/>
<path d="M0 0 C0.66 0.66 1.32 1.32 2 2 C0.02 2.99 0.02 2.99 -2 4 C-1.48050781 4.268125 -0.96101562 4.53625 -0.42578125 4.8125 C5.00169298 7.86231916 8.70951127 11.09235332 11 17 C11.31359427 22.74922826 8.72835599 26.53796906 5.66796875 31.1796875 C3.79664344 33.22193011 2.70383855 33.63636011 0 34 C0.52268466 31.23723823 1.10869587 28.6739124 2 26 C2.25161401 21.47094777 2.21417945 18.00661044 0 14 C-2.47906969 11.2704415 -2.47906969 11.2704415 -5 9 C-5.33 8.67 -5.66 8.34 -6 8 C-7.99958364 7.95919217 -10.00045254 7.95745644 -12 8 C-12 7.34 -12 6.68 -12 6 C-8.535 5.505 -8.535 5.505 -5 5 C-4.67 3.68 -4.34 2.36 -4 1 C-2.125 0.375 -2.125 0.375 0 0 Z " fill="#EAF6F8" transform="translate(755,113)"/>
<path d="M0 0 C0.33 0 0.66 0 1 0 C2.60316093 9.95005319 2.60316093 9.95005319 0.3125 13.9375 C-1.21886177 15.30330914 -2.76047973 16.6577122 -4.3125 18 C-4.869375 18.66 -5.42625 19.32 -6 20 C-5.71395102 21.67542976 -5.38218767 23.34385343 -5 25 C-6.0625 26.8125 -6.0625 26.8125 -8 28 C-10.875 28.5 -10.875 28.5 -14 28 C-14.721875 27.2575 -15.44375 26.515 -16.1875 25.75 C-19.64411205 22.37020155 -22.84557769 21.37210713 -27.37890625 19.89453125 C-29.72065918 19.0953339 -31.82146533 18.16359381 -34 17 C-32.58376784 16.94552953 -31.16691809 16.90699492 -29.75 16.875 C-28.56664062 16.84019531 -28.56664062 16.84019531 -27.359375 16.8046875 C-24.78780537 17.01756578 -23.26393672 17.82664785 -21 19 C-19.09989652 18.17574711 -19.09989652 18.17574711 -17 17 C-13.06009672 16.22609043 -9.83581542 15.61910645 -6 17 C-6.99 15.68 -7.98 14.36 -9 13 C-7.576875 12.38125 -7.576875 12.38125 -6.125 11.75 C-2.8834264 9.93471878 -2.07722115 9.42752184 -1 6 C-0.61709538 4.00889599 -0.27395385 2.00899487 0 0 Z " fill="#4A8C9D" transform="translate(793,137)"/>
<path d="M0 0 C4.891997 -0.27363148 8.71257818 0.09433151 12.73828125 3.02734375 C15.37902998 5.67441006 16.00520693 7.62328784 16.11328125 11.33984375 C15.94440318 14.54307944 15.88620482 15.25442018 13.55078125 17.58984375 C13.55078125 14.94984375 13.55078125 12.30984375 13.55078125 9.58984375 C7.94078125 9.58984375 2.33078125 9.58984375 -3.44921875 9.58984375 C-3.77921875 8.92984375 -4.10921875 8.26984375 -4.44921875 7.58984375 C-5.10921875 8.90984375 -5.76921875 10.22984375 -6.44921875 11.58984375 C-8.09921875 11.58984375 -9.74921875 11.58984375 -11.44921875 11.58984375 C-10.33546875 10.53796875 -10.33546875 10.53796875 -9.19921875 9.46484375 C-6.31619619 6.74076786 -6.31619619 6.74076786 -4.82421875 3.27734375 C-2.44921875 0.58984375 -2.44921875 0.58984375 0 0 Z " fill="#508A9A" transform="translate(774.44921875,101.41015625)"/>
<path d="M0 0 C0.99 0.33 1.98 0.66 3 1 C2.67 2.98 2.34 4.96 2 7 C3.65 6.67 5.3 6.34 7 6 C6.360625 6.94875 5.72125 7.8975 5.0625 8.875 C3.07379437 11.75287827 3.07379437 11.75287827 2 14 C-0.5625 14.625 -0.5625 14.625 -3 15 C-3.66 16.98 -4.32 18.96 -5 21 C-5.66 21 -6.32 21 -7 21 C-7 21.66 -7 22.32 -7 23 C-7.66 23 -8.32 23 -9 23 C-9 23.66 -9 24.32 -9 25 C-8.01 25.33 -7.02 25.66 -6 26 C-10.59808129 25.46105575 -13.86784369 24.23428472 -17.875 21.9375 C-18.84179688 21.38964844 -19.80859375 20.84179688 -20.8046875 20.27734375 C-21.52914062 19.85582031 -22.25359375 19.43429688 -23 19 C-23 18.67 -23 18.34 -23 18 C-21.02 18 -19.04 18 -17 18 C-16.67 18.99 -16.34 19.98 -16 21 C-14.35 21.33 -12.7 21.66 -11 22 C-10.67 21.01 -10.34 20.02 -10 19 C-9.2575 18.62875 -8.515 18.2575 -7.75 17.875 C-3.70194558 15.11496289 -1.78991829 11.51208568 0 7 C0.36615248 4.48727861 0.27103835 2.54776047 0 0 Z " fill="#508999" transform="translate(765,128)"/>
<path d="M0 0 C4.75 0.875 4.75 0.875 7 2 C7.36923077 7.41538462 7.36923077 7.41538462 5.5 10.375 C5.005 10.91125 4.51 11.4475 4 12 C-1.875 11.125 -1.875 11.125 -3 10 C-3.47274656 5.74528094 -2.39014869 3.48563351 0 0 Z " fill="#358398" transform="translate(819,148)"/>
<path d="M0 0 C-0.185625 1.010625 -0.37125 2.02125 -0.5625 3.0625 C-0.99768247 6.97914227 -0.70853021 10.14244663 0 14 C-0.53625 13.2575 -1.0725 12.515 -1.625 11.75 C-4.16926068 8.80401395 -6.70028406 7.03599494 -10 5 C-10.99 4.34 -11.98 3.68 -13 3 C-4.738041 -1.77676538 -4.738041 -1.77676538 0 0 Z " fill="#4D8B9C" transform="translate(765,114)"/>
<path d="M0 0 C0.33 0 0.66 0 1 0 C1.59541566 14.66486709 1.59541566 14.66486709 -2 20 C-6.12022408 22.71934789 -9.00303321 23.2795523 -13.75 22.375 C-17.41453552 21.49089877 -18.14100115 20.85899885 -21 18 C-16.05 18.99 -11.1 19.98 -6 21 C-6 20.01 -6 19.02 -6 18 C-5.01 18 -4.02 18 -3 18 C-3.020625 17.195625 -3.04125 16.39125 -3.0625 15.5625 C-3 13 -3 13 -2 12 C-1.60430892 9.98688551 -1.25747809 7.96402792 -0.9375 5.9375 C-0.76089844 4.83277344 -0.58429687 3.72804687 -0.40234375 2.58984375 C-0.26957031 1.73519531 -0.13679687 0.88054687 0 0 Z " fill="#598C9A" transform="translate(859,132)"/>
<path d="M0 0 C7.45937249 0.61142397 7.45937249 0.61142397 10 2.4375 C11 4 11 4 11 6 C6.71 6 2.42 6 -2 6 C-2 5.01 -2 4.02 -2 3 C-1.34 3 -0.68 3 0 3 C0 2.01 0 1.02 0 0 Z " fill="#348397" transform="translate(775,103)"/>
<path d="M0 0 C1.24546405 2.49092811 0.7767578 3.41080733 0 6 C-0.66 6 -1.32 6 -2 6 C-2 7.65 -2 9.3 -2 11 C-2.99 11.495 -2.99 11.495 -4 12 C-6.625 11.0625 -6.625 11.0625 -9 10 C-9 9.34 -9 8.68 -9 8 C-8.34 8 -7.68 8 -7 8 C-6.6596875 6.576875 -6.6596875 6.576875 -6.3125 5.125 C-5 2 -5 2 -2.375 0.625 C-1.59125 0.41875 -0.8075 0.2125 0 0 Z " fill="#2E8498" transform="translate(767,141)"/>
<path d="M0 0 C0.66 0.66 1.32 1.32 2 2 C0.02 2.99 0.02 2.99 -2 4 C-0.02 4.99 1.96 5.98 4 7 C3.0409375 7.37125 3.0409375 7.37125 2.0625 7.75 C-0.18741541 8.81562433 -0.18741541 8.81562433 -0.75 11.125 C-0.8325 11.74375 -0.915 12.3625 -1 13 C-1.70125 12.175 -2.4025 11.35 -3.125 10.5 C-5.78627227 7.69576604 -5.78627227 7.69576604 -9.3125 7.6875 C-10.199375 7.790625 -11.08625 7.89375 -12 8 C-12 7.34 -12 6.68 -12 6 C-8.535 5.505 -8.535 5.505 -5 5 C-4.67 3.68 -4.34 2.36 -4 1 C-2.125 0.375 -2.125 0.375 0 0 Z " fill="#E1F2F5" transform="translate(755,113)"/>
<path d="M0 0 C0.66 0.66 1.32 1.32 2 2 C0.37332431 4.99650785 -1.16825411 7.16424806 -3.625 9.5625 C-5.88661207 11.88362818 -6.6512354 12.86111862 -7 16 C-8.32 14.68 -9.64 13.36 -11 12 C-10.28972656 11.30132812 -9.57945312 10.60265625 -8.84765625 9.8828125 C-7.92855469 8.97273437 -7.00945313 8.06265625 -6.0625 7.125 C-4.68771484 5.76761719 -4.68771484 5.76761719 -3.28515625 4.3828125 C-0.98812373 2.22317745 -0.98812373 2.22317745 0 0 Z " fill="#E1F2F5" transform="translate(778,127)"/>
<path d="M0 0 C4.55737263 0.43820891 7.57653445 0.85041169 11 4 C9.5625 5.6875 9.5625 5.6875 7 7 C2.78836121 6.23696775 -0.95183295 5.04816705 -4 2 C-3.01 2 -2.02 2 -1 2 C-0.67 1.34 -0.34 0.68 0 0 Z " fill="#368296" transform="translate(806,110)"/>
<path d="M0 0 C2.6875 0.875 2.6875 0.875 5 2 C5 4.64 5 7.28 5 10 C3.02 10.99 3.02 10.99 1 12 C1 9.03 1 6.06 1 3 C-0.32 2.67 -1.64 2.34 -3 2 C-2.01 1.34 -1.02 0.68 0 0 Z " fill="#2C859A" transform="translate(849,125)"/>
<path d="M0 0 C1.98362069 2.91708924 1.9876191 4.12380904 1.625 7.75 C1.315625 9.35875 1.315625 9.35875 1 11 C0.12988281 10.85691406 0.12988281 10.85691406 -0.7578125 10.7109375 C-5.85023435 9.98825057 -9.11242122 10.13806523 -14 12 C-14.99 11.67 -15.98 11.34 -17 11 C-15.10751181 10.32389577 -13.2108398 9.65949561 -11.3125 9 C-10.25675781 8.62875 -9.20101562 8.2575 -8.11328125 7.875 C-5.21637944 7.0608143 -2.98299377 6.82290204 0 7 C0 4.69 0 2.38 0 0 Z " fill="#609DAB" transform="translate(825,139)"/>
<path d="M0 0 C1.32 0.66 2.64 1.32 4 2 C4.05399736 3.45792884 4.09279177 4.91642712 4.125 6.375 C4.14820313 7.18710938 4.17140625 7.99921875 4.1953125 8.8359375 C4 11 4 11 2 13 C2 10.36 2 7.72 2 5 C-3.28 5 -8.56 5 -14 5 C-14 4.67 -14 4.34 -14 4 C-9.38 4 -4.76 4 0 4 C0 2.68 0 1.36 0 0 Z " fill="#5D95A5" transform="translate(786,106)"/>
<path d="M0 0 C2.4375 0.6875 2.4375 0.6875 5 2 C5.8125 4.625 5.8125 4.625 6 7 C6.66 7 7.32 7 8 7 C8 8.32 8 9.64 8 11 C6.68 11 5.36 11 4 11 C3.67 10.01 3.34 9.02 3 8 C3.33 7.34 3.66 6.68 4 6 C2.68 5.67 1.36 5.34 0 5 C0 3.35 0 1.7 0 0 Z " fill="#388492" transform="translate(818,116)"/>
<path d="M0 0 C2.25 -0.25 2.25 -0.25 5 0 C7.3125 2 7.3125 2 9 4 C8.34 4 7.68 4 7 4 C7 5.65 7 7.3 7 9 C5.68 9 4.36 9 3 9 C2 6 2 6 2 2 C1.34 1.34 0.68 0.68 0 0 Z " fill="#528B9B" transform="translate(744,120)"/>
<path d="M0 0 C1.65 0 3.3 0 5 0 C5.33 0.99 5.66 1.98 6 3 C8.97 3.495 8.97 3.495 12 4 C12.33 3.34 12.66 2.68 13 2 C12.125 5.875 12.125 5.875 11 7 C8.25 7.375 8.25 7.375 5 7 C2.125 4.625 2.125 4.625 0 2 C0 1.34 0 0.68 0 0 Z " fill="#548896" transform="translate(774,158)"/>
<path d="M0 0 C1.32 0 2.64 0 4 0 C4 0.66 4 1.32 4 2 C3.01 2.495 3.01 2.495 2 3 C2.33 4.98 2.66 6.96 3 9 C6.465 8.505 6.465 8.505 10 8 C10 8.66 10 9.32 10 10 C4.60550707 10.27429625 1.48074195 10.36055646 -3 7 C-2.01 6.67 -1.02 6.34 0 6 C-0.33 5.01 -0.66 4.02 -1 3 C-0.67 2.01 -0.34 1.02 0 0 Z " fill="#5392A3" transform="translate(801,152)"/>
<path d="M0 0 C0.66 0.66 1.32 1.32 2 2 C0.3125 4.9375 0.3125 4.9375 -2 8 C-4.5625 8.6875 -4.5625 8.6875 -7 9 C-8.79385992 10.4579186 -8.79385992 10.4579186 -10 12 C-9.6875 9.625 -9.6875 9.625 -9 7 C-6 5 -6 5 -2 5 C-1.34 3.35 -0.68 1.7 0 0 Z " fill="#508796" transform="translate(786,118)"/>
<path d="M0 0 C0.66 0.33 1.32 0.66 2 1 C2.50675332 3.78714325 2.32573728 5.48478156 0.8046875 7.890625 C-2.11476193 11.49959264 -2.11476193 11.49959264 -4 13 C-5.32 13 -6.64 13 -8 13 C-8 12.01 -8 11.02 -8 10 C-7.21625 9.731875 -6.4325 9.46375 -5.625 9.1875 C-2.71885077 8.15185568 -2.71885077 8.15185568 -1 5 C-0.61500109 3.34450469 -0.27206865 1.6777567 0 0 Z " fill="#29859B" transform="translate(856,138)"/>
<path d="M0 0 C3 2 3 2 3.6875 3.6875 C4.33615396 8.48753932 4.7411209 11.88831865 2 16 C1.77213542 13.94921875 1.54427083 11.8984375 1.31640625 9.84765625 C1.18113386 7.98859771 1.18113386 7.98859771 0 7 C-0.04092937 4.66702567 -0.04241723 2.33294775 0 0 Z " fill="#538A99" transform="translate(754,126)"/>
<path d="M0 0 C0.33 0 0.66 0 1 0 C1.33 4.29 1.66 8.58 2 13 C3.32 13.33 4.64 13.66 6 14 C5.360625 14.12375 4.72125 14.2475 4.0625 14.375 C3.381875 14.58125 2.70125 14.7875 2 15 C1.67 15.66 1.34 16.32 1 17 C0 16 0 16 -0.09765625 12.40234375 C-0.0909822 10.91403133 -0.07902183 9.42573568 -0.0625 7.9375 C-0.05798828 7.17888672 -0.05347656 6.42027344 -0.04882812 5.63867188 C-0.0370068 3.75908129 -0.01907078 1.87953101 0 0 Z " fill="#6394A1" transform="translate(833,131)"/>
<path d="M0 0 C2.475 0.99 2.475 0.99 5 2 C5.12375 3.134375 5.2475 4.26875 5.375 5.4375 C5.684375 7.2009375 5.684375 7.2009375 6 9 C6.66 9.33 7.32 9.66 8 10 C7.34 10 6.68 10 6 10 C6 11.98 6 13.96 6 16 C5.67 16 5.34 16 5 16 C4.89042969 15.34773437 4.78085937 14.69546875 4.66796875 14.0234375 C3.73491038 8.8802377 2.65215917 4.58100221 0 0 Z " fill="#B2C5C9" transform="translate(787,127)"/>
<path d="M0 0 C0.99 0.33 1.98 0.66 3 1 C2.979375 1.928125 2.95875 2.85625 2.9375 3.8125 C2.84230396 7.02286011 2.84230396 7.02286011 4 10 C3.34 10 2.68 10 2 10 C1.67 8.35 1.34 6.7 1 5 C-0.32 5 -1.64 5 -3 5 C-2.67 4.01 -2.34 3.02 -2 2 C-1.34 2 -0.68 2 0 2 C0 1.34 0 0.68 0 0 Z " fill="#328294" transform="translate(744,121)"/>
<path d="M0 0 C2.55028983 1.27514492 2.93081711 2.40341297 4 5 C4 5.99 4 6.98 4 8 C1 8 1 8 -0.75 6.75 C-2 5 -2 5 -1.75 2.875 C-1 1 -1 1 0 0 Z " fill="#258596" transform="translate(796,139)"/>
<path d="M0 0 C0.66 0.33 1.32 0.66 2 1 C-3.625 6 -3.625 6 -7 6 C-7.33 6.66 -7.66 7.32 -8 8 C-8.99 7.34 -9.98 6.68 -11 6 C-5.25 3 -5.25 3 -3 3 C-3 2.34 -3 1.68 -3 1 C-2.01 0.67 -1.02 0.34 0 0 Z " fill="#568897" transform="translate(846,123)"/>
<path d="M0 0 C1.32 0 2.64 0 4 0 C4.33 1.65 4.66 3.3 5 5 C4.01 5.495 4.01 5.495 3 6 C2.01 5.67 1.02 5.34 0 5 C-0.75 3 -0.75 3 -1 1 C-0.67 0.67 -0.34 0.34 0 0 Z " fill="#FDFCFD" transform="translate(755,121)"/>
<path d="M0 0 C0.66 0 1.32 0 2 0 C2.36923077 5.41538462 2.36923077 5.41538462 0.5 8.375 C0.005 8.91125 -0.49 9.4475 -1 10 C-1.66 9.67 -2.32 9.34 -3 9 C-3 8.01 -3 7.02 -3 6 C-2.01 6 -1.02 6 0 6 C0 4.02 0 2.04 0 0 Z " fill="#4F8895" transform="translate(824,150)"/>
<path d="M0 0 C2 2 2 2 2.3125 5.4375 C2 9 2 9 0.5 10.9375 C0.005 11.288125 -0.49 11.63875 -1 12 C-1.66 11.67 -2.32 11.34 -3 11 C-2.34 10.01 -1.68 9.02 -1 8 C-0.54860541 5.9507906 -0.54860541 5.9507906 -0.375 3.8125 C-0.25125 2.554375 -0.1275 1.29625 0 0 Z " fill="#D0E7EB" transform="translate(790,109)"/>
<path d="M0 0 C2.475 0.99 2.475 0.99 5 2 C4.67 3.32 4.34 4.64 4 6 C2.68 5.67 1.36 5.34 0 5 C0 3.35 0 1.7 0 0 Z " fill="#238598" transform="translate(818,116)"/>
<path d="M0 0 C1.41493551 -0.10884119 2.83232943 -0.18597617 4.25 -0.25 C5.03890625 -0.29640625 5.8278125 -0.3428125 6.640625 -0.390625 C9 0 9 0 13 4 C8.71 3.01 4.42 2.02 0 1 C0 0.67 0 0.34 0 0 Z " fill="#6196A1" transform="translate(759,154)"/>
<path d="M0 0 C0.66 0.99 1.32 1.98 2 3 C1.125 5.6875 1.125 5.6875 0 8 C-0.99 8 -1.98 8 -3 8 C-2.45276317 4.62537285 -1.9451 2.91765 0 0 Z " fill="#6396A3" transform="translate(736,126)"/>
<path d="M0 0 C1.32 0.66 2.64 1.32 4 2 C4 3.65 4 5.3 4 7 C2.02 5.35 0.04 3.7 -2 2 C-1.34 1.34 -0.68 0.68 0 0 Z " fill="#518895" transform="translate(738,139)"/>
<path d="M0 0 C1.32 0 2.64 0 4 0 C3.67 1.65 3.34 3.3 3 5 C1.68 4.34 0.36 3.68 -1 3 C-0.67 2.01 -0.34 1.02 0 0 Z " fill="#5EA2B2" transform="translate(747,125)"/>
<path d="M0 0 C0.66 0.66 1.32 1.32 2 2 C1.01 2 0.02 2 -1 2 C-1 2.66 -1 3.32 -1 4 C-2.98 4.66 -4.96 5.32 -7 6 C-4.56838906 1.25835866 -4.56838906 1.25835866 -1.9375 0.0625 C-0.9784375 0.0315625 -0.9784375 0.0315625 0 0 Z " fill="#DAECF0" transform="translate(844,122)"/>
<path d="M0 0 C7.57142857 1.85714286 7.57142857 1.85714286 10 5 C9.01 5.495 9.01 5.495 8 6 C6.0546875 5.22265625 6.0546875 5.22265625 3.875 4.0625 C3.15054688 3.68222656 2.42609375 3.30195312 1.6796875 2.91015625 C1.12539063 2.60980469 0.57109375 2.30945313 0 2 C0 1.34 0 0.68 0 0 Z " fill="#5B9CAD" transform="translate(800,112)"/>
<path d="M0 0 C0.33 0.66 0.66 1.32 1 2 C0.22265625 3.7265625 0.22265625 3.7265625 -0.9375 5.625 C-1.618125 6.73875 -2.29875 7.8525 -3 9 C-4.65 9 -6.3 9 -8 9 C-6.8553125 7.88625 -6.8553125 7.88625 -5.6875 6.75 C-3.5606298 4.5736677 -1.7440044 2.47832204 0 0 Z " fill="#62909D" transform="translate(771,104)"/>
<path d="M0 0 C3.3 0 6.6 0 10 0 C9.67 0.99 9.34 1.98 9 3 C6 4 6 4 2.8125 2.5625 C1.884375 2.046875 0.95625 1.53125 0 1 C0 0.67 0 0.34 0 0 Z " fill="#E0F2F5" transform="translate(843,154)"/>
<path d="M0 0 C2.96175123 0.61277612 4.38058783 1.25372522 7 3 C6.67 4.65 6.34 6.3 6 8 C5.87625 7.071875 5.87625 7.071875 5.75 6.125 C5.20005805 3.8234856 5.20005805 3.8234856 3 2.875 C2.34 2.58625 1.68 2.2975 1 2 C0.67 1.34 0.34 0.68 0 0 Z " fill="#568794" transform="translate(849,123)"/>
<path d="M0 0 C2.31 0 4.62 0 7 0 C6.67 0.99 6.34 1.98 6 3 C3.69 2.67 1.38 2.34 -1 2 C-0.67 1.34 -0.34 0.68 0 0 Z " fill="#46858F" transform="translate(753,116)"/>
<path d="M0 0 C0.66 0.99 1.32 1.98 2 3 C2.66 3.33 3.32 3.66 4 4 C2.1875 5.0625 2.1875 5.0625 0 6 C-0.99 5.67 -1.98 5.34 -3 5 C-2.01 3.35 -1.02 1.7 0 0 Z " fill="#5D94A3" transform="translate(764,137)"/>
<path d="M0 0 C-3.75 2 -3.75 2 -6 2 C-6.33 2.99 -6.66 3.98 -7 5 C-7.99 4.34 -8.98 3.68 -10 3 C-6.48812804 0.59185923 -4.27343092 -0.36629408 0 0 Z " fill="#6A97A3" transform="translate(812,108)"/>
</svg>
