<svg width="95" height="95" viewBox="0 0 95 95" fill="none" xmlns="http://www.w3.org/2000/svg">
<path d="M18.181 8.79776C19.2939 7.49936 20.9186 6.75211 22.6287 6.75211H72.656C74.3661 6.75211 75.9908 7.49936 77.1037 8.79775L92.3906 26.6325C93.7557 28.225 94.506 30.2534 94.506 32.3509V33.8452C94.506 41.5289 88.2771 47.7578 80.5934 47.7578C76.1288 47.7578 72.1555 45.6549 69.6097 42.3856C67.064 45.6549 63.0906 47.7578 58.626 47.7578C54.1615 47.7578 50.1881 45.6549 47.6424 42.3856C45.0966 45.6549 41.1232 47.7578 36.6587 47.7578C32.1941 47.7578 28.2208 45.6549 25.675 42.3856C23.1293 45.6549 19.1559 47.7578 14.6913 47.7578C7.00759 47.7578 0.778687 41.5289 0.778687 33.8452V32.3509C0.778687 30.2534 1.52902 28.225 2.89408 26.6325L18.181 8.79776ZM28.604 33.8452C28.604 38.2936 32.2102 41.8999 36.6587 41.8999C41.1072 41.8999 44.7134 38.2936 44.7134 33.8452C44.7134 32.2275 46.0247 30.9162 47.6424 30.9162C49.26 30.9162 50.5713 32.2275 50.5713 33.8452C50.5713 38.2936 54.1775 41.8999 58.626 41.8999C63.0745 41.8999 66.6807 38.2936 66.6807 33.8452C66.6807 32.2275 67.9921 30.9162 69.6097 30.9162C71.2273 30.9162 72.5387 32.2275 72.5387 33.8452C72.5387 38.2936 76.1449 41.8999 80.5934 41.8999C85.0419 41.8999 88.6481 38.2936 88.6481 33.8452V32.3509C88.6481 31.6518 88.398 30.9756 87.9429 30.4448L72.656 12.6101H22.6287L7.34178 30.4448C6.88676 30.9756 6.63665 31.6518 6.63665 32.3509V33.8452C6.63665 38.2936 10.2429 41.8999 14.6913 41.8999C19.1398 41.8999 22.746 38.2936 22.746 33.8452C22.746 32.2275 24.0574 30.9162 25.675 30.9162C27.2926 30.9162 28.604 32.2275 28.604 33.8452ZM9.56562 50.6868C11.1833 50.6868 12.4946 51.9981 12.4946 53.6158V88.7635H18.3526V59.4737C18.3526 56.2385 20.9753 53.6158 24.2105 53.6158H41.7844C45.0197 53.6158 47.6424 56.2385 47.6424 59.4737V88.7635H82.7901V53.6158C82.7901 51.9981 84.1015 50.6868 85.7191 50.6868C87.3367 50.6868 88.6481 51.9981 88.6481 53.6158V88.7635H91.577C93.1947 88.7635 94.506 90.0749 94.506 91.6925C94.506 93.3101 93.1947 94.6215 91.577 94.6215H3.70767C2.09004 94.6215 0.778687 93.3101 0.778687 91.6925C0.778687 90.0749 2.09004 88.7635 3.70767 88.7635H6.63665V53.6158C6.63665 51.9981 7.94799 50.6868 9.56562 50.6868ZM24.2105 88.7635H41.7844V59.4737H24.2105V88.7635ZM53.5003 59.4737C53.5003 56.2385 56.123 53.6158 59.3583 53.6158H71.0742C74.3095 53.6158 76.9322 56.2385 76.9322 59.4737V77.0476C76.9322 80.2829 74.3095 82.9056 71.0742 82.9056H59.3583C56.123 82.9056 53.5003 80.2829 53.5003 77.0476V59.4737ZM71.0742 59.4737H59.3583V77.0476H71.0742V59.4737Z" fill="#FFA41E"/>
</svg>
