<?xml version="1.0" encoding="UTF-8" standalone="no"?>
<svg
   width="70"
   height="67"
   viewBox="0 0 70 67"
   fill="none"
   version="1.1"
   id="svg1"
   sodipodi:docname="delete-icon.svg"
   inkscape:version="1.3.2 (091e20e, 2023-11-25)"
   xmlns:inkscape="http://www.inkscape.org/namespaces/inkscape"
   xmlns:sodipodi="http://sodipodi.sourceforge.net/DTD/sodipodi-0.dtd"
   xmlns="http://www.w3.org/2000/svg"
   xmlns:svg="http://www.w3.org/2000/svg">
  <defs
     id="defs1" />
  <sodipodi:namedview
     id="namedview1"
     pagecolor="#ffffff"
     bordercolor="#000000"
     borderopacity="0.25"
     inkscape:showpageshadow="2"
     inkscape:pageopacity="0.0"
     inkscape:pagecheckerboard="0"
     inkscape:deskcolor="#d1d1d1"
     inkscape:zoom="3.5223881"
     inkscape:cx="35.061441"
     inkscape:cy="33.5"
     inkscape:window-width="1312"
     inkscape:window-height="449"
     inkscape:window-x="0"
     inkscape:window-y="25"
     inkscape:window-maximized="0"
     inkscape:current-layer="svg1" />
  <path
     d="m 47.831566,6.7358318 v 4.0696502 h 14.243777 c 1.12363,0 2.034826,0.911193 2.034826,2.034824 0,1.12363 -0.911196,2.034826 -2.034826,2.034826 h -2.191099 l -3.470597,43.380439 c -0.33819,4.229994 -3.869831,7.490191 -8.113256,7.490191 h -25.35555 c -4.243425,0 -7.775067,-3.260197 -8.113256,-7.490191 L 11.360988,14.875132 H 9.1698889 c -1.123631,0 -2.034826,-0.911196 -2.034826,-2.034826 0,-1.123631 0.911195,-2.034824 2.034826,-2.034824 H 23.413665 V 6.7358318 c 0,-3.3712979 2.733177,-6.10447632 6.104475,-6.10447632 h 12.208952 c 3.371298,0 6.104474,2.73317842 6.104474,6.10447632 z m -20.34825,0 v 4.0696502 h 16.2786 V 6.7358318 c 0,-1.1236304 -0.911194,-2.0348262 -2.034824,-2.0348262 H 29.51814 c -1.123631,0 -2.034824,0.9111958 -2.034824,2.0348262 z m -6.104477,14.3597602 2.034826,34.592029 c 0.06592,1.122003 1.028807,1.977851 2.15081,1.911922 1.122003,-0.06594 1.97785,-1.029214 1.911922,-2.15081 L 25.441572,20.856704 c -0.06634,-1.122003 -1.029215,-1.977851 -2.150811,-1.911922 -1.122003,0.06592 -1.977851,1.028807 -1.911922,2.15081 z m 26.575632,-2.147148 c -1.121596,-0.06634 -2.084883,0.789921 -2.15081,1.911515 l -2.034826,34.592029 c -0.06592,1.122003 0.789919,2.084883 1.911922,2.15081 1.122003,0.06634 2.084882,-0.789919 2.150809,-1.911515 l 2.034826,-34.592027 c 0.06594,-1.122003 -0.789918,-2.084883 -1.911921,-2.150812 z m -12.331855,-0.0036 c -1.12363,0 -2.034826,0.911193 -2.034826,2.034826 v 34.592027 c 0,1.12363 0.911196,2.034826 2.034826,2.034826 1.12363,0 2.034826,-0.911196 2.034826,-2.034826 V 20.979608 c 0,-1.123632 -0.911196,-2.034826 -2.034826,-2.034826 z"
     fill="#5b91c8"
     id="path1"
     style="stroke-width:4.06964" />
</svg>
