<?xml version="1.0" encoding="UTF-8" standalone="no"?>
<svg
   width="100"
   height="100"
   viewBox="0 0 100 100"
   fill="none"
   version="1.1"
   id="svg1"
   sodipodi:docname="delete.svg"
   inkscape:version="1.3.2 (091e20e, 2023-11-25)"
   xmlns:inkscape="http://www.inkscape.org/namespaces/inkscape"
   xmlns:sodipodi="http://sodipodi.sourceforge.net/DTD/sodipodi-0.dtd"
   xmlns="http://www.w3.org/2000/svg"
   xmlns:svg="http://www.w3.org/2000/svg">
  <defs
     id="defs1" />
  <sodipodi:namedview
     id="namedview1"
     pagecolor="#ffffff"
     bordercolor="#000000"
     borderopacity="0.25"
     inkscape:showpageshadow="2"
     inkscape:pageopacity="0.0"
     inkscape:pagecheckerboard="0"
     inkscape:deskcolor="#d1d1d1"
     inkscape:zoom="2.36"
     inkscape:cx="47.245763"
     inkscape:cy="48.305085"
     inkscape:window-width="1312"
     inkscape:window-height="449"
     inkscape:window-x="0"
     inkscape:window-y="25"
     inkscape:window-maximized="0"
     inkscape:current-layer="svg1" />
  <path
     d="m 69.036017,10.409428 v 6.058261 h 21.20392 c 1.672686,0 3.029131,1.356447 3.029131,3.029133 0,1.672686 -1.356445,3.029131 -3.029131,3.029131 H 86.978168 L 81.811682,87.104005 C 81.30824,93.400962 76.05088,98.254237 69.73393,98.254237 h -37.7454 c -6.316952,0 -11.574312,-4.853275 -12.077754,-11.150232 L 14.74429,22.525953 h -3.261769 c -1.6726863,0 -3.0291313,-1.356445 -3.0291313,-3.029131 0,-1.672686 1.356445,-3.029133 3.0291313,-3.029133 h 21.20392 v -6.058261 c 0,-5.0186649 4.06873,-9.0873941 9.087393,-9.0873941 h 18.17479 c 5.018664,0 9.087393,4.0687292 9.087393,9.0873941 z m -30.291313,0 v 6.058261 h 24.23305 v -6.058261 c 0,-1.6726863 -1.356444,-3.0291314 -3.02913,-3.0291314 h -18.17479 c -1.672686,0 -3.02913,1.3564451 -3.02913,3.0291314 z m -9.087394,21.37658 3.029131,51.495232 c 0.09815,1.670264 1.531528,2.944317 3.201792,2.846172 1.670263,-0.09815 2.944315,-1.532135 2.846172,-3.201791 L 35.705274,31.430387 c -0.09875,-1.670262 -1.532135,-2.944314 -3.201793,-2.846171 -1.670262,0.09815 -2.944316,1.531528 -2.846171,3.201792 z m 39.561667,-3.196339 c -1.669658,-0.09875 -3.103648,1.175907 -3.201793,2.845565 l -3.029131,51.495232 c -0.09815,1.670264 1.175909,3.10365 2.846172,3.201793 1.670264,0.09875 3.103648,-1.175909 3.201792,-2.845565 L 72.065148,31.79146 c 0.09815,-1.670262 -1.175909,-3.103648 -2.846171,-3.201791 z m -18.357747,-0.0054 c -1.672688,0 -3.029132,1.356445 -3.029132,3.029131 v 51.495233 c 0,1.672686 1.356444,3.029131 3.029132,3.029131 1.672686,0 3.029131,-1.356445 3.029131,-3.029131 V 31.613346 c 0,-1.672686 -1.356445,-3.02913 -3.029131,-3.02913 z"
     fill="#FFA41E"
     id="path1"
     style="stroke-width:6.05827" />
</svg>
